<svg width="352" height="334" viewBox="0 0 352 334" fill="none" xmlns="http://www.w3.org/2000/svg">
<path d="M202.157 283.311L43.254 282.626L27.4649 249.896L83.2954 246.314L73.5648 210.43L183.991 197.78L78.249 165.293L87.5897 163.332L257.621 187.847L248.257 243.849L234.872 274.625L202.157 283.311Z" fill="#00B0FF"/>
<path d="M45.6913 268.918C45.6913 268.918 55.4405 267.539 61.29 273.628C61.29 273.628 57.0004 276.615 47.7711 272.479L45.6913 268.918Z" fill="#00B0FF"/>
<path d="M44.6699 268.782C44.6699 268.782 38.449 275.548 41.5131 283.081C41.5131 283.081 46.5826 281.288 47.1351 272.155L44.6699 268.782Z" fill="#00B0FF"/>
<path d="M39.0804 257.659C39.0804 257.659 42.9801 251.337 58.5788 260.187C58.5788 260.187 56.499 264.437 49.6095 264.093C42.7201 263.748 40.9003 260.991 39.0804 257.659Z" fill="#00B0FF"/>
<path d="M38.073 257.204C38.073 257.204 29.9811 256.383 29.1966 272.754C29.1966 272.754 34.3265 273.694 37.9708 268.516C41.6152 263.338 40.1203 260.433 38.073 257.204Z" fill="#00B0FF"/>
<path d="M33.3609 244.144C33.3609 244.144 37.9105 233 54.4192 240.927C54.4192 240.927 50.6495 251.152 35.0507 247.935L33.3609 244.144Z" fill="#00B0FF"/>
<path d="M28.2913 227.486C28.2913 227.486 36.8706 216.227 52.0793 226.665C52.0793 226.665 46.7498 237.235 29.5912 231.49L28.2913 227.486Z" fill="#00B0FF"/>
<path d="M26.4714 211.632C26.4714 211.632 36.4806 201.288 51.5408 211.632C51.5408 211.632 42.0516 220.708 26.4714 214.274V211.632Z" fill="#00B0FF"/>
<path d="M24.9116 196.233C24.9116 196.233 35.0507 185.434 49.4796 195.659C49.4796 195.659 38.0405 205.194 24.9116 198.761V196.233Z" fill="#00B0FF"/>
<path d="M25.8215 182.562C25.8215 182.562 36.4992 168.661 49.9995 178.082C49.9995 178.082 38.5604 190.03 25.8215 185.205V182.562Z" fill="#00B0FF"/>
<path d="M28.2913 166.593C28.2913 166.593 39.6004 152.807 52.7293 163.377C52.7293 163.377 39.3404 175.325 28.2913 169.121V166.593Z" fill="#00B0FF"/>
<path d="M32.061 152.319C32.061 152.319 45.4499 139.362 57.1304 144.523C57.1304 144.523 43.1797 158.285 31.476 155.757L32.061 152.319Z" fill="#00B0FF"/>
<path d="M36.7406 138.788C36.7406 138.788 52.1908 122.917 61.1786 128.218C61.1786 128.218 49.7953 140.527 35.645 141.758L36.7406 138.788Z" fill="#00B0FF"/>
<path d="M43.4954 123.094C43.4954 123.094 57.0189 110.136 66.8981 113.353C66.8981 113.353 55.3291 126.794 41.6802 127.139L43.4954 123.094Z" fill="#00B0FF"/>
<path d="M49.6095 108.413C49.6095 108.413 64.5583 96.0057 71.0578 98.1885C71.0578 98.1885 60.2687 111.975 48.9596 111.17L49.6095 108.413Z" fill="#00B0FF"/>
<path d="M55.5891 94.8569C55.5891 94.8569 68.458 80.0328 75.4821 81.1816C75.4821 81.1816 67.6781 94.3974 55.5891 96.3627V94.8569Z" fill="#00B0FF"/>
<path d="M62.0793 76.5781C62.0793 76.5781 73.4533 65.2169 79.6 65.2415C79.6 65.2415 70.6214 80.4226 61.6104 80.2831L62.0793 76.5781Z" fill="#00B0FF"/>
<path d="M65.9232 64.4086L76.912 40.7426C76.912 40.7426 77.4598 62.1356 64.5258 68.7988L65.9232 64.4086Z" fill="#00B0FF"/>
<path d="M70.3846 38.3096C70.3846 38.3096 72.2045 18.5455 71.0346 16.9371C71.0346 16.9371 78.8897 33.3696 70.3104 47.0407L70.3846 38.3096Z" fill="#00B0FF"/>
<path d="M32.9337 243.881C32.9337 243.881 21.5411 237.641 14.1642 252.908C14.1642 252.908 24.3034 258.857 34.2754 247.775L32.9337 243.881Z" fill="#00B0FF"/>
<path d="M27.9245 226.85C27.9245 226.85 13.9507 221.216 7.17263 237.157C7.17263 237.157 17.9664 243.721 29.1966 230.879L27.9245 226.85Z" fill="#00B0FF"/>
<path d="M25.8215 212.58C25.8215 212.58 15.8123 202.236 0.752075 212.58C0.752075 212.58 10.2413 221.655 25.8215 215.222V212.58Z" fill="#00B0FF"/>
<path d="M24.568 196.233C24.568 196.233 14.4288 185.434 0 195.659C0 195.659 11.4391 205.194 24.568 198.761V196.233Z" fill="#00B0FF"/>
<path d="M25.8215 182.956C25.8215 182.956 18.7092 167.385 3.24974 174.081C3.24974 174.081 11.6062 187.888 25.1901 185.541L25.8215 182.956Z" fill="#00B0FF"/>
<path d="M29.1873 166.515C29.1873 166.515 22.1168 150.674 6.43912 158.018C6.43912 158.018 16.0398 172.539 28.4909 168.961L29.1873 166.515Z" fill="#00B0FF"/>
<path d="M33.5698 152.397C33.5698 152.397 30.7843 135.029 17.7853 133.474C17.7853 133.474 20.543 151.79 31.8196 155.528L33.5698 152.397Z" fill="#00B0FF"/>
<path d="M37.0702 138.82C37.0702 138.82 35.9839 117.895 25.2365 117.165C25.2365 117.165 25.5986 133.047 35.8585 141.783L37.0702 138.82Z" fill="#00B0FF"/>
<path d="M44.6096 122.507C44.6096 122.507 41.4063 105.106 31.1464 102.981C31.1464 102.981 32.4184 119.832 43.5929 126.778L44.6096 122.507Z" fill="#00B0FF"/>
<path d="M50.8259 108.557C50.8259 108.557 50.7191 90.4298 44.4517 87.767C44.4517 87.767 40.566 104.179 49.0107 110.871L50.8259 108.557Z" fill="#00B0FF"/>
<path d="M56.0672 94.6517C56.0672 94.6517 55.1898 75.9873 48.6996 73.3573C48.6996 73.3573 46.4805 88.128 55.097 95.8744L56.0672 94.6517Z" fill="#00B0FF"/>
<path d="M62.9845 78.0675C62.9845 78.0675 62.9474 62.8864 58.3142 59.325C58.3142 59.325 53.7089 75.9544 60.5658 81.1201L62.9845 78.0675Z" fill="#00B0FF"/>
<path d="M65.38 63.6619L60.8722 38.3957C60.8722 38.3957 54.7488 59.0994 65.5936 68.2244L65.38 63.6619Z" fill="#00B0FF"/>
<path d="M66.2575 38.5475C66.2575 38.5475 54.6884 21.5612 54.9252 19.6738C54.9252 19.6738 56.1554 37.4767 70.7096 46.3432L66.2575 38.5475Z" fill="#00B0FF"/>
<path d="M67.6131 33.5296C67.6131 33.5296 56.694 9.40404 51.7544 7.45102C51.7544 7.45102 67.3531 14.4589 68.523 32.8403L67.6131 33.5296Z" fill="#00B0FF"/>
<path d="M61.5547 80.4267L60.8072 80.2257C70.0225 53.667 72.3206 36.734 67.2835 32.4874L67.8174 31.9869C73.1609 36.4673 70.9928 53.2157 61.5547 80.4267Z" fill="#444053"/>
<path d="M36.1789 142.612L35.0739 142.263C36.0535 139.83 37.1073 137.36 38.2123 134.927C47.8315 113.739 56.0208 94.0281 61.2715 78.8963L62.2325 78.486C56.9725 93.6465 48.9271 114.112 39.2986 135.329C38.1983 137.717 37.1491 140.174 36.1789 142.612Z" fill="#444053"/>
<path d="M59.4284 288.793C59.2798 288.649 44.345 273.784 33.9319 248.407C27.8305 233.55 24.4348 217.931 23.8716 202.134C23.1567 182.386 27.8456 160.336 35.8771 140.306L36.7499 141.208C18.7185 186.165 25.8818 224.688 35.385 247.886C45.6867 273.033 60.4544 287.734 60.5983 287.882L59.4284 288.793Z" fill="#444053"/>
<path d="M292.815 257.232C292.815 257.232 282.291 268.585 290.647 285.748L206.618 317.957L198.554 319.45L194.84 305.09L197.324 286.967V277.062L292.815 257.232Z" fill="#D5D6DB"/>
<path d="M27.4649 249.896L143.768 231.158L297.876 252.855L202.157 283.311L27.4649 249.896Z" fill="#00B0FF"/>
<path d="M27.4649 249.896L143.768 231.158L297.876 252.855L202.157 283.311L27.4649 249.896Z" fill="#00B0FF"/>
<path d="M27.4649 249.892C27.4649 249.892 16.5876 268.105 29.1223 284.928L201.59 317.957C201.59 317.957 190.885 303.448 202.143 283.311L27.4649 249.892Z" fill="#00B0FF"/>
<path opacity="0.1" d="M27.4649 249.892C27.4649 249.892 16.5876 268.105 29.1223 284.928L201.59 317.957C201.59 317.957 190.885 303.448 202.143 283.311L27.4649 249.892Z" fill="black"/>
<path opacity="0.1" d="M32.6041 256.207C32.6041 256.207 26.3879 269.533 32.6041 278.158Z" fill="black"/>
<path d="M201.59 317.957L297.876 281.645C297.876 281.645 303.261 282.671 299.779 286.158C296.297 289.646 203.447 321.444 203.447 321.444L29.1223 284.928L201.59 317.957Z" fill="#00B0FF"/>
<path opacity="0.1" d="M201.59 317.957L297.876 281.645C297.876 281.645 303.261 282.671 299.779 286.158C296.297 289.646 203.447 321.444 203.447 321.444L29.1223 284.928L201.59 317.957Z" fill="black"/>
<path opacity="0.1" d="M193.698 286.979C193.698 286.979 184.413 296.826 193.698 311.597Z" fill="black"/>
<path opacity="0.1" d="M238.65 286.813L197.003 299.092L197.15 299.482L238.797 287.202L238.65 286.813Z" fill="black"/>
<path opacity="0.1" d="M246.992 285.591L196.99 302.395L197.155 302.779L247.157 285.974L246.992 285.591Z" fill="black"/>
<path opacity="0.1" d="M254.653 285.532L197.269 306.29L197.445 306.67L254.829 285.911L254.653 285.532Z" fill="black"/>
<path opacity="0.1" d="M262.983 283.754L197.938 309.722L198.13 310.096L263.174 284.128L262.983 283.754Z" fill="black"/>
<path opacity="0.1" d="M269.982 283.763L198.453 311.394L198.639 311.77L270.168 284.139L269.982 283.763Z" fill="black"/>
<path opacity="0.1" d="M285.291 281.465L199.532 314.201L199.716 314.577L285.475 281.842L285.291 281.465Z" fill="black"/>
<path opacity="0.3" d="M70.6725 251.899L152.38 236.718L202.157 245.129L135.203 264.208L70.6725 251.899Z" fill="white"/>
<path d="M297.875 252.855C297.875 252.855 302.1 254.36 299.621 256.687C297.142 259.013 202.143 283.311 202.143 283.311L297.875 252.855Z" fill="#00B0FF"/>
<path d="M338.91 217.77C338.91 217.77 328.39 229.119 336.747 246.286L252.718 278.494L244.654 279.996L240.94 265.635L243.461 247.517V237.6L338.91 217.77Z" fill="#D5D6DB"/>
<path d="M73.5647 210.43L189.864 191.695L343.975 213.392L248.257 243.849L73.5647 210.43Z" fill="#3A3768"/>
<path d="M73.5462 210.43C73.5462 210.43 62.6642 228.643 75.1989 245.465L247.667 278.494C247.667 278.494 236.966 263.974 248.238 243.844L73.5462 210.43Z" fill="#3A3768"/>
<path opacity="0.1" d="M73.5462 210.43C73.5462 210.43 62.6642 228.643 75.1989 245.465L247.667 278.494C247.667 278.494 236.966 263.974 248.238 243.844L193.698 233.411L73.5462 210.43Z" fill="black"/>
<path opacity="0.1" d="M78.6993 216.744C78.6993 216.744 72.4877 230.067 78.6993 238.695Z" fill="black"/>
<path d="M247.686 278.494L343.975 242.183C343.975 242.183 349.356 243.208 345.874 246.696C342.392 250.184 249.543 281.982 249.543 281.982L75.2175 245.465L247.686 278.494Z" fill="#3A3768"/>
<path opacity="0.1" d="M247.686 278.494L343.975 242.183C343.975 242.183 349.356 243.208 345.874 246.696C342.392 250.184 249.543 281.982 249.543 281.982L75.2175 245.465L247.686 278.494Z" fill="black"/>
<path opacity="0.1" d="M239.793 247.517C239.793 247.517 230.508 257.364 239.793 272.134Z" fill="black"/>
<path opacity="0.1" d="M284.749 247.354L243.102 259.634L243.249 260.024L284.896 247.744L284.749 247.354Z" fill="black"/>
<path opacity="0.1" d="M293.096 246.13L243.094 262.935L243.259 263.318L293.261 246.514L293.096 246.13Z" fill="black"/>
<path opacity="0.1" d="M300.751 246.066L243.366 266.825L243.542 267.204L300.926 246.446L300.751 246.066Z" fill="black"/>
<path opacity="0.1" d="M309.087 244.289L244.042 270.257L244.233 270.631L309.278 244.663L309.087 244.289Z" fill="black"/>
<path opacity="0.1" d="M316.079 244.292L244.55 271.924L244.736 272.3L316.265 244.668L316.079 244.292Z" fill="black"/>
<path opacity="0.1" d="M331.391 241.995L245.632 274.73L245.816 275.107L331.575 242.371L331.391 241.995Z" fill="black"/>
<path opacity="0.45" d="M116.772 212.436L198.48 197.255L248.257 205.666L181.303 224.745L116.772 212.436Z" fill="white"/>
<path d="M343.975 213.392C343.975 213.392 348.195 214.898 345.721 217.22C343.246 219.542 248.257 243.844 248.257 243.844L343.975 213.392Z" fill="#3A3768"/>
<path d="M343.274 172.625C343.274 172.625 332.75 193.004 341.106 210.167L257.077 233.349L249.032 234.855L245.318 220.494L247.802 202.371V192.455L343.274 172.625Z" fill="#D5D6DB"/>
<path d="M77.9426 165.289L194.246 146.55L348.358 168.247L252.635 198.703L77.9426 165.289Z" fill="#00B0FF"/>
<path d="M77.9426 165.285C77.9426 165.285 67.0467 183.498 79.5814 200.32L252.05 233.349C252.05 233.349 241.344 218.829 252.616 198.703L77.9426 165.285Z" fill="#00B0FF"/>
<path opacity="0.1" d="M77.9426 165.285C77.9426 165.285 67.0467 183.498 79.5814 200.32L252.05 233.349C252.05 233.349 241.344 218.829 252.616 198.703L77.9426 165.285Z" fill="black"/>
<path opacity="0.1" d="M83.0818 171.599C83.0818 171.599 76.8655 184.926 83.0818 193.55Z" fill="black"/>
<path d="M252.068 233.349L348.353 206.064C348.353 206.064 353.738 207.09 350.257 210.577C346.775 214.065 253.925 236.837 253.925 236.837L79.6 200.32L252.068 233.349Z" fill="#00B0FF"/>
<path opacity="0.1" d="M252.068 233.349L348.353 206.064C348.353 206.064 353.738 207.09 350.257 210.577C346.775 214.065 253.925 236.837 253.925 236.837L79.6 200.32L252.068 233.349Z" fill="black"/>
<path opacity="0.1" d="M244.176 202.371C244.176 202.371 234.891 212.219 244.176 226.989Z" fill="black"/>
<path opacity="0.1" d="M289.133 202.209L247.485 214.488L247.632 214.878L289.28 202.598L289.133 202.209Z" fill="black"/>
<path opacity="0.1" d="M297.477 200.987L247.475 217.791L247.64 218.175L297.642 201.37L297.477 200.987Z" fill="black"/>
<path opacity="0.1" d="M305.127 200.924L247.743 221.683L247.919 222.062L305.303 201.304L305.127 200.924Z" fill="black"/>
<path opacity="0.1" d="M313.469 199.144L248.424 225.112L248.616 225.486L313.661 199.517L313.469 199.144Z" fill="black"/>
<path opacity="0.1" d="M320.464 199.151L248.935 226.783L249.121 227.159L320.65 199.527L320.464 199.151Z" fill="black"/>
<path opacity="0.1" d="M335.775 196.856L250.016 229.592L250.2 229.968L335.959 197.232L335.775 196.856Z" fill="black"/>
<path opacity="0.3" d="M121.15 167.291L202.858 152.11L252.635 160.521L185.681 179.6L121.15 167.291Z" fill="white"/>
<path d="M348.353 168.247C348.353 168.247 352.578 169.753 350.099 172.079C347.62 174.406 252.634 198.703 252.634 198.703L348.353 168.247Z" fill="#00B0FF"/>
<path d="M144.112 43.6968C144.112 43.6968 126.47 42.7572 128.532 53.6957C128.532 53.6957 128.119 55.6282 130.101 56.5063C130.101 56.5063 130.133 55.6857 131.911 55.9688C132.546 56.0651 133.191 56.0927 133.833 56.0509C134.699 55.9985 135.522 55.699 136.178 55.1974V55.1974C136.178 55.1974 141.141 53.3839 143.072 46.2119C143.072 46.2119 144.502 44.6487 144.465 44.2466L141.475 45.3708C141.475 45.3708 142.492 47.2705 141.693 48.8501C141.693 48.8501 141.596 45.4405 141.02 45.5185C140.904 45.5185 139.474 46.1791 139.474 46.1791C139.474 46.1791 141.224 49.4902 139.901 51.8945C139.901 51.8945 140.403 47.8162 138.926 46.417L136.828 47.5002C136.828 47.5002 138.875 50.918 137.487 53.7081C137.487 53.7081 137.845 49.4286 136.387 47.7628L134.483 49.0758C134.483 49.0758 136.41 52.4443 135.235 54.7584C135.235 54.7584 135.082 49.7774 134.075 49.3999C134.075 49.3999 132.408 50.6965 132.158 51.2298C132.158 51.2298 133.476 53.6916 132.654 54.9677C132.654 54.9677 132.158 51.6483 131.726 51.6319C131.726 51.6319 130.068 53.8311 129.897 55.3246C129.977 53.9323 130.468 52.5828 131.322 51.4104C130.367 51.5701 129.485 51.9738 128.787 52.5715C128.787 52.5715 129.042 51.0165 131.735 50.8811C131.735 50.8811 133.105 49.2112 133.471 49.1127C133.471 49.1127 130.793 48.9117 129.172 49.5476C129.172 49.5476 130.602 48.0829 133.959 48.727L135.816 47.373C135.816 47.373 132.297 46.9627 130.802 47.4182C130.802 47.4182 132.524 46.1216 136.322 47.0653L138.369 45.9862C138.369 45.9862 135.365 45.4159 133.578 45.6211C133.578 45.6211 135.463 44.7225 138.968 45.6949L140.426 45.1164C140.426 45.1164 138.23 44.7348 137.585 44.6733C136.939 44.6117 136.907 44.4558 136.907 44.4558C138.301 44.2535 139.73 44.3955 141.039 44.8661C141.039 44.8661 144.172 43.8691 144.112 43.6968Z" fill="#00B0FF"/>
<path opacity="0.1" d="M193.987 68.1096C193.987 68.1096 176.346 67.17 178.407 78.1086C178.407 78.1086 177.994 80.0411 179.976 80.9191C179.976 80.9191 180.009 80.0985 181.787 80.3816C182.421 80.4757 183.067 80.5033 183.709 80.4637C184.566 80.4079 185.38 80.1085 186.03 79.6103V79.6103C186.03 79.6103 190.997 77.7968 192.924 70.6248C192.924 70.6248 194.354 69.0615 194.317 68.6594L191.336 69.7836C191.336 69.7836 192.353 71.6833 191.554 73.263C191.554 73.263 191.457 69.8534 190.886 69.9314C190.77 69.9314 189.335 70.5919 189.335 70.5919C189.335 70.5919 191.086 73.903 189.767 76.3074C189.767 76.3074 190.268 72.229 188.788 70.8299L186.689 71.9131C186.689 71.9131 188.736 75.3309 187.348 78.1209C187.348 78.1209 187.706 73.8415 186.248 72.1757L184.349 73.4886C184.349 73.4886 186.271 76.8572 185.097 79.1713C185.097 79.1713 184.944 74.1902 183.936 73.8128C183.936 73.8128 182.274 75.1093 182.019 75.6427C182.019 75.6427 183.337 78.1045 182.52 79.3805C182.52 79.3805 182.019 76.0612 181.592 76.0448C181.592 76.0448 179.934 78.244 179.763 79.7375C179.843 78.3445 180.336 76.9947 181.192 75.8232C180.236 75.9833 179.353 76.3869 178.653 76.9844C178.653 76.9844 178.913 75.4294 181.601 75.294C181.601 75.294 182.97 73.624 183.337 73.5215C183.337 73.5215 180.663 73.3245 179.038 73.9605C179.038 73.9605 180.468 72.4957 183.825 73.1399L185.682 71.7859C185.682 71.7859 182.158 71.3756 180.668 71.831C180.668 71.831 182.386 70.5345 186.188 71.4782L188.23 70.3991C188.23 70.3991 185.227 69.8288 183.439 70.0339C183.439 70.0339 185.324 69.1354 188.829 70.1078L190.292 69.5293C190.292 69.5293 188.091 69.1477 187.446 69.0861C186.801 69.0246 186.768 68.8687 186.768 68.8687C188.162 68.6638 189.592 68.8059 190.9 69.279C190.9 69.279 194.043 68.282 193.987 68.1096Z" fill="#00B0FF"/>
<path opacity="0.1" d="M173.824 111.273C173.824 111.273 166.136 97.1874 156.349 104.13C156.349 104.13 154.237 104.753 154.339 106.71C154.339 106.71 155.152 106.337 155.732 107.847C155.949 108.381 156.236 108.89 156.586 109.365C157.061 110.009 157.76 110.498 158.578 110.76C158.578 110.76 162.789 113.706 170.815 111.696C170.815 111.696 173.058 112.036 173.425 111.798L170.862 110.046C170.862 110.046 169.469 111.757 167.529 111.909C167.529 111.909 170.853 110.173 170.495 109.771C170.421 109.689 169.102 108.897 169.102 108.897C169.102 108.897 166.684 111.864 163.666 112.016C163.666 112.016 167.937 110.415 168.596 108.59L166.507 107.498C166.507 107.498 164.126 110.748 160.695 111.035C160.695 111.035 165.096 109.226 166.029 107.289L163.81 106.468C163.81 106.468 161.419 109.595 158.559 109.82C158.559 109.82 163.406 107.273 163.285 106.308C163.285 106.308 161.192 105.66 160.542 105.722C160.542 105.722 158.768 107.933 157.097 107.933C157.097 107.933 160.128 105.927 159.943 105.603C159.943 105.603 156.962 105.397 155.393 106.013C156.807 105.392 158.381 105.109 159.957 105.192C159.331 104.533 158.502 104.05 157.57 103.801C157.57 103.801 159.232 103.243 160.676 105.25C160.676 105.25 162.998 105.492 163.271 105.726C163.271 105.726 162.162 103.568 160.746 102.628C160.746 102.628 162.891 103.01 163.87 105.91L166.122 106.698C166.122 106.698 164.827 103.777 163.634 102.854C163.634 102.854 165.751 103.547 166.674 106.957L168.736 108.007C168.736 108.007 167.84 105.41 166.763 104.134C166.763 104.134 168.569 105.151 169.316 108.327L170.602 109.172C170.602 109.172 169.906 107.289 169.673 106.764C169.441 106.239 169.557 106.132 169.557 106.132C170.441 107.106 171 108.278 171.173 109.517C171.173 109.517 173.657 111.396 173.824 111.273Z" fill="#00B0FF"/>
<path opacity="0.1" d="M154.188 143.884C154.188 143.884 146.504 129.798 136.713 136.74C136.713 136.74 134.606 137.364 134.703 139.321C134.703 139.321 135.52 138.952 136.096 140.458C136.312 140.993 136.601 141.505 136.955 141.98C137.428 142.622 138.126 143.111 138.942 143.371V143.371C138.942 143.371 143.157 146.317 151.179 144.31C151.179 144.31 153.422 144.647 153.793 144.409L151.244 142.653C151.244 142.653 149.852 144.368 147.916 144.519C147.916 144.519 151.235 142.78 150.878 142.378C150.803 142.296 149.485 141.504 149.485 141.504C149.485 141.504 147.071 144.47 144.049 144.622C144.049 144.622 148.324 143.022 148.984 141.2L146.862 140.117C146.862 140.117 144.485 143.362 141.05 143.654C141.05 143.654 145.451 141.84 146.388 139.904L144.165 139.083C144.165 139.083 141.774 142.214 138.919 142.435C138.919 142.435 143.761 139.887 143.64 138.927C143.64 138.927 141.551 138.275 140.901 138.34C140.901 138.34 139.128 140.548 137.452 140.548C137.452 140.548 140.488 138.541 140.302 138.217C140.302 138.217 137.322 138.012 135.748 138.628C137.162 138.006 138.735 137.723 140.311 137.807C139.688 137.148 138.86 136.664 137.93 136.416C137.93 136.416 139.592 135.858 141.036 137.864C141.036 137.864 143.357 138.111 143.631 138.344C143.631 138.344 142.521 136.182 141.101 135.243C141.101 135.243 143.245 135.628 144.225 138.546L146.481 139.333C146.481 139.333 145.186 136.408 143.993 135.485C143.993 135.485 146.11 136.178 147.029 139.588L149.095 140.638C149.095 140.638 148.194 138.045 147.117 136.765C147.117 136.765 148.928 137.782 149.671 140.958L150.957 141.803C150.957 141.803 150.265 139.92 150.028 139.395C149.791 138.87 149.912 138.767 149.912 138.767C150.793 139.742 151.35 140.914 151.523 142.152C151.523 142.152 154.044 144.015 154.188 143.884Z" fill="#00B0FF"/>
<path opacity="0.1" d="M93.7549 321.74C99.6495 321.74 104.428 321.267 104.428 320.685C104.428 320.103 99.6495 319.631 93.7549 319.631C87.8603 319.631 83.0818 320.103 83.0818 320.685C83.0818 321.267 87.8603 321.74 93.7549 321.74Z" fill="#00B0FF"/>
<path opacity="0.1" d="M23.7881 303.818C29.6826 303.818 34.4611 303.346 34.4611 302.763C34.4611 302.181 29.6826 301.709 23.7881 301.709C17.8935 301.709 13.115 302.181 13.115 302.763C13.115 303.346 17.8935 303.818 23.7881 303.818Z" fill="#00B0FF"/>
<path opacity="0.1" d="M147.088 333.642C152.982 333.642 157.761 333.17 157.761 332.588C157.761 332.005 152.982 331.533 147.088 331.533C141.193 331.533 136.415 332.005 136.415 332.588C136.415 333.17 141.193 333.642 147.088 333.642Z" fill="#00B0FF"/>
<path d="M331.919 154.801C328.883 147.51 312.17 146.825 304.918 148.684C299.765 150.009 288.902 151.503 283.098 152.254L282.722 151.938C283.475 151.741 283.493 151.257 283.4 150.538C283.346 149.592 283.362 148.644 283.447 147.699C287.003 148.676 290.169 146.366 290.169 146.366C294.347 144.725 293.224 137.7 294.022 135.78C294.621 134.344 295.266 125.884 295.554 121.666H295.615L295.647 120.25C295.689 119.639 295.707 119.282 295.707 119.282C295.707 119.282 296.116 108.967 296.915 106.879C297.657 104.958 298.261 95.2836 298.354 93.7491C298.354 93.6178 298.354 93.548 298.354 93.548L298.293 92.6536C298.335 92.0012 298.354 91.275 298.349 90.5118C298.349 87.0038 297.936 82.5849 297.885 81.871C297.885 81.7684 297.885 81.6453 297.885 81.4976C297.917 80 297.704 72.4997 290.485 69.6646C287.825 68.6142 284.626 67.3628 281.529 66.1442C280.731 60.0513 278.906 53.9912 279.064 47.8531C279.064 46.9299 279.157 46.0068 279.259 45.0877C279.259 45.3544 279.227 45.6252 279.222 45.9083C279.222 46.5032 279.222 47.1023 279.222 47.6972C279.496 40.0205 282.778 32.3028 282.472 24.7902C282.444 25.5247 282.384 26.2632 282.305 27.0018C282.465 24.4607 282.164 21.9134 281.413 19.4564C281.135 18.5906 280.759 17.6962 279.956 17.1177C279.196 16.6517 278.326 16.347 277.411 16.2273C275.215 15.7303 272.983 15.363 270.731 15.1277C270.389 14.202 269.881 13.3307 269.227 12.5469C264.519 6.83558 257.546 1.46888 249.301 0.237986C245.165 -0.377461 240.406 0.135411 237.593 2.74901C237.299 2.97861 237.023 3.22534 236.767 3.48755C235.253 5.08361 234.603 7.18024 233.053 8.77219C232.95 8.87887 232.834 8.97734 232.723 9.07992C229.687 11.4802 224.956 11.9807 221.581 14.1348C220.986 14.5215 220.429 14.951 219.914 15.419C218.554 16.6101 217.335 17.9202 216.275 19.3292C214.757 21.2165 213.197 23.1819 212.714 25.4344C211.744 29.9477 215.221 34.2271 215.866 38.7691C217.305 48.9322 204.58 57.9506 206.99 67.9783C207.633 70.4418 209.052 72.6938 211.084 74.4733C206.122 78.445 201.897 82.2977 201.897 82.2977V82.5274H201.112L201.191 83.348H201.112L201.544 87.7998L201.112 94.2825C201.112 94.2825 201.112 94.3522 201.112 94.4835V94.5163V94.6928C201.112 94.6928 201.112 94.7625 201.112 94.8938H201.14C201.284 97.2695 201.855 105.812 202.533 107.613C203.331 109.701 203.735 120.016 203.735 120.016C203.735 120.016 204.617 134.594 205.425 136.523C206.233 138.451 205.086 145.455 209.278 147.108C210.505 147.94 211.957 148.472 213.489 148.651C213.276 150.186 213.41 151.298 214.102 151.646C214.398 151.8 214.734 151.885 215.077 151.892C214.792 152.265 214.539 152.656 214.32 153.062C212.656 152.908 211.021 152.568 209.455 152.048C204.952 150.407 190.007 146.714 185.667 149.312C181.326 151.909 170.88 154.264 175.704 164.718C180.528 175.173 182.774 175.435 182.774 175.435C184.259 176.388 185.562 177.545 186.632 178.861C188.081 180.786 201.577 185.188 204.952 185.188C206.386 185.169 207.821 185.232 209.246 185.377C209.246 185.377 205.583 188.216 206.07 189.866C206.558 191.515 204.956 204.718 204.956 204.718C204.956 204.718 208.67 208.025 210.258 203.689L210.314 203.754C210.611 204.111 212.217 205.724 215.239 203.689C216.476 202.859 217.79 202.124 219.167 201.489L233.8 199.659C235.326 199.575 236.855 199.566 238.382 199.631C240.703 199.799 242.983 198.584 244.417 197.645C247.449 198.662 250.856 199.774 252.477 200.18C255.764 201.001 270.87 204.583 274.403 203.463C275.138 203.205 275.79 202.794 276.307 202.265L279.677 202.359L278.099 202.638C278.099 202.638 281.172 202.683 285.35 202.733L285.174 202.823L290.415 202.782C298.084 202.843 306.701 202.864 307.834 202.638C309.607 202.289 318.822 202.536 321.538 202.638H322.295C322.295 202.638 332.42 200.853 328.242 191.773C325.029 184.798 315.155 182.772 310.772 182.214C312.007 181.996 313.07 181.828 313.776 181.729C316.835 181.319 322.778 178.857 323.261 178.016C323.743 177.175 328.725 174.734 330.011 173.343C331.297 171.952 334.969 162.092 331.919 154.801ZM248.052 175.206L247.556 175.349L247.221 175.448L246.581 176.006C246.07 175.702 245.522 175.382 244.951 175.054C245.959 175.107 246.994 175.16 248.052 175.206Z" fill="url(#paint0_linear)"/>
<path d="M277.653 131.944C277.653 131.944 284.756 148.356 288.795 146.715C292.834 145.073 291.738 138.098 292.509 136.186C293.279 134.274 294.134 119.774 294.134 119.774C294.134 119.774 294.524 109.517 295.294 107.441C296.009 105.533 296.589 95.9114 296.687 94.3974C296.687 94.2661 296.687 94.1963 296.687 94.1963L295.921 82.2977L291.585 81.3417L281.529 84.624L280.137 91.6525L279.593 94.3974L279.361 95.5667L277.653 131.944Z" fill="#BE6F72"/>
<path opacity="0.1" d="M279.993 129.195C279.993 129.195 286.771 134.098 288.813 134.529C290.856 134.959 292.11 138.783 292.11 138.783" fill="black"/>
<path d="M222.106 132.662C222.106 132.662 215.003 149.074 210.964 147.433C206.925 145.791 208.02 138.816 207.25 136.904C206.479 134.992 205.625 120.492 205.625 120.492C205.625 120.492 205.235 110.235 204.464 108.159C203.749 106.251 203.169 96.6294 203.071 95.1154C203.071 94.9841 203.071 94.9143 203.071 94.9143L203.842 83.0157L208.178 82.0597L218.234 85.3421L219.626 92.3705L220.17 95.1154L220.402 96.2847L222.106 132.662Z" fill="#BE6F72"/>
<path d="M268.359 44.8333H252.505V66.6735H268.359V44.8333Z" fill="#3E373A"/>
<path opacity="0.1" d="M268.359 44.8333H252.505V66.6735H268.359V44.8333Z" fill="black"/>
<path d="M219.32 149.008C219.32 149.008 213.902 154.272 215.912 155.228C217.923 156.184 230.926 174.102 230.926 174.102C230.926 174.102 273.637 178.751 281.692 171.775C289.746 164.8 289.584 152.34 289.584 152.34C289.584 152.34 283.112 153.571 282.407 152.902C281.701 152.233 277.825 149.008 277.825 149.008C277.825 149.008 223.034 146.07 219.32 149.008Z" fill="#4B4B5B"/>
<path opacity="0.02" d="M219.32 149.008C219.32 149.008 213.902 154.272 215.912 155.228C217.923 156.184 230.926 174.102 230.926 174.102C230.926 174.102 273.637 178.751 281.692 171.775C289.746 164.8 289.584 152.34 289.584 152.34C289.584 152.34 283.112 153.571 282.407 152.902C281.701 152.233 277.825 149.008 277.825 149.008C277.825 149.008 223.034 146.07 219.32 149.008Z" fill="black"/>
<path d="M296.209 82.47L282.281 92.3171L278.071 92.5879L276.525 92.6864L250.559 94.3686L223.633 92.6289L219.626 92.3704L214.52 92.0422L203.842 83.0157C203.842 83.0157 211.4 75.86 218.02 71.0308C220.629 69.123 223.094 67.5802 224.891 66.973L225.197 66.8786C226.328 66.4891 227.336 65.8675 228.141 65.0651C233.368 60.3015 238.201 48.5465 238.201 48.5465C238.201 48.5465 261.26 38.0183 258.475 51.8289C255.689 65.6395 268.841 62.2258 268.841 62.2258L273.177 63.9737L274.891 64.6671L279.259 66.4355L289.115 70.4318C296.85 73.5788 296.209 82.47 296.209 82.47Z" fill="#BE6F72"/>
<path opacity="0.1" d="M249.478 59.7928C260.931 59.7928 270.216 51.587 270.216 41.4648C270.216 31.3425 260.931 23.1367 249.478 23.1367C238.024 23.1367 228.74 31.3425 228.74 41.4648C228.74 51.587 238.024 59.7928 249.478 59.7928Z" fill="black"/>
<path opacity="0.1" d="M296.241 95.5257H203.071C203.071 95.3944 203.071 95.3246 203.071 95.3246L203.842 83.426C203.842 83.426 211.4 76.2704 218.02 71.4411L276.515 69.3897L279.236 66.854L289.092 70.8503C296.831 73.9932 296.209 82.8844 296.209 82.8844C296.209 82.8844 297.267 93.187 296.241 95.5257Z" fill="black"/>
<path d="M296.241 95.1154H203.071C203.071 94.9841 203.071 94.9143 203.071 94.9143L203.842 83.0157C203.842 83.0157 211.4 75.8601 218.02 71.0309L276.515 68.9794L279.236 66.4437L289.092 70.44C296.831 73.5829 296.209 82.4741 296.209 82.4741C296.209 82.4741 297.267 92.7767 296.241 95.1154Z" fill="#DDAA5D"/>
<path opacity="0.1" d="M234.543 61.7499C234.543 61.7499 249.241 78.3014 268.818 61.4094C288.396 44.5174 270.986 99.0871 270.986 99.0871L228.74 103.518L234.543 61.7499Z" fill="black"/>
<path d="M234.543 62.5705C234.543 62.5705 249.241 79.1219 268.818 62.23C288.396 45.338 270.986 99.9077 270.986 99.9077L228.74 104.339L234.543 62.5705Z" fill="#DDAA5D"/>
<path opacity="0.1" d="M274.867 65.4754L276.423 86.4376L278.089 93.4126L279.361 98.7465C279.361 98.7465 282.611 139.776 281.683 141.828C280.754 143.879 282.147 145.521 282.342 146.612C282.537 147.703 282.147 150.444 282.3 151.675C282.453 152.906 282.3 153.452 278.744 153.013C275.188 152.574 270.23 151.81 270.23 151.81C270.23 151.81 257.695 152.631 253.363 151.265C249.032 149.898 240.829 149.894 240.829 149.894C240.829 149.894 228.447 150.169 224.427 149.759C220.406 149.349 218.234 154.137 215.606 152.766C212.978 151.396 218.698 138.135 220.555 134.303C222.412 130.471 218.081 120.763 218.081 120.763L223.652 93.4496L224.891 87.2582V67.7936L225.197 67.6992C226.328 67.3097 227.336 66.6881 228.141 65.8857L229.534 85.4734L273.173 86.8438V64.7984" fill="black"/>
<path d="M274.867 64.6548L276.423 85.617L278.089 92.592L279.361 97.9259C279.361 97.9259 282.611 138.956 281.683 141.007C280.754 143.059 282.147 144.7 282.342 145.791C282.537 146.883 282.147 149.624 282.3 150.854C282.453 152.085 282.3 152.631 278.744 152.192C275.188 151.753 270.23 150.99 270.23 150.99C270.23 150.99 257.695 151.81 253.363 150.444C249.032 149.078 240.829 149.074 240.829 149.074C240.829 149.074 228.447 149.349 224.427 148.938C220.406 148.528 218.234 153.316 215.606 151.946C212.978 150.575 218.698 137.315 220.555 133.482C222.412 129.65 218.081 119.943 218.081 119.943L223.652 92.629L224.891 86.4376V66.973L225.197 66.8786C226.328 66.4892 227.336 65.8675 228.141 65.0651L229.534 84.6528L273.173 86.0232V63.9778" fill="#DDAA5D"/>
<path opacity="0.1" d="M279.886 20.9088C279.621 20.0513 279.255 19.1609 278.493 18.5865C277.766 18.1251 276.926 17.8215 276.042 17.7003C273.924 17.2082 271.772 16.8435 269.598 16.6089C269.288 15.6978 268.818 14.8353 268.205 14.0527C263.656 8.37418 256.924 3.01979 249.004 1.80941C244.858 1.17345 240.053 1.74376 237.398 4.63226C235.94 6.22012 235.313 8.32495 233.842 9.88408C231.005 12.9121 225.885 13.2855 222.31 15.6283C220.402 16.8592 219.018 18.644 217.667 20.3754C216.205 22.2505 214.701 24.2035 214.237 26.4437C213.308 30.9201 216.655 35.1872 217.273 39.7046C218.666 49.8102 206.409 58.7752 208.726 68.7455C210.077 74.5594 216.154 78.6542 222.44 80.7303C224.654 81.4647 227.184 82.1951 228.22 84.0742C228.684 84.8948 228.763 85.8426 229.199 86.6714C230.666 89.4368 235.49 89.5435 238.08 87.529C240.671 85.5144 241.488 82.2566 241.794 79.2163C243.039 65.9391 237.022 52.8218 237.723 39.5117C237.932 35.4867 239.213 30.9201 243.294 29.0984C248.786 26.6366 255.392 30.7395 261.437 29.9559C264.297 36.1068 264.904 42.8954 263.173 49.3671C262.212 52.908 260.55 56.3422 260.429 59.9938C260.248 65.5534 263.642 70.6329 266.576 75.5482C267.205 76.4674 267.627 77.4861 267.815 78.5475C267.862 79.6244 267.635 80.6968 267.152 81.6863C265.494 85.6293 262.634 89.2891 262.309 93.4865C262.214 93.9764 262.339 94.4799 262.658 94.8897C262.985 95.1632 263.407 95.3309 263.855 95.3657C268.869 96.1247 273.205 92.1981 275.652 88.2552C278.38 83.9002 279.969 79.0606 280.304 74.0917C280.81 65.738 277.421 57.5197 277.63 49.1578C277.871 39.6512 282.732 30.079 279.886 20.9088Z" fill="black"/>
<path d="M280.35 20.4985C280.085 19.641 279.719 18.7506 278.957 18.1762C278.23 17.7148 277.391 17.4112 276.506 17.29C274.389 16.7979 272.236 16.4332 270.062 16.1986C269.752 15.2875 269.282 14.425 268.67 13.6424C264.12 7.96388 257.388 2.60949 249.468 1.39911C245.323 0.763149 240.518 1.33346 237.862 4.22196C236.404 5.80982 235.778 7.91465 234.306 9.47378C231.469 12.5018 226.349 12.8752 222.774 15.218C220.866 16.4489 219.483 18.2337 218.132 19.9651C216.669 21.8402 215.165 23.7932 214.701 26.0334C213.772 30.5098 217.12 34.7769 217.737 39.2943C219.13 49.3999 206.874 58.3649 209.19 68.3352C210.541 74.1491 216.618 78.2439 222.904 80.32C225.119 81.0544 227.649 81.7848 228.684 83.6639C229.148 84.4845 229.227 85.4323 229.664 86.2611C231.131 89.0265 235.954 89.1332 238.545 87.1186C241.135 85.1041 241.952 81.8463 242.259 78.806C243.503 65.5287 237.486 52.4115 238.187 39.1014C238.396 35.0764 239.677 30.5098 243.758 28.6881C249.25 26.2263 255.856 30.3292 261.901 29.5456C264.761 35.6965 265.368 42.4851 263.637 48.9568C262.676 52.4977 261.014 55.9319 260.893 59.5835C260.712 65.1431 264.106 70.2226 267.04 75.1379C267.67 76.0571 268.091 77.0758 268.28 78.1372C268.326 79.2141 268.099 80.2865 267.616 81.276C265.958 85.219 263.099 88.8788 262.774 93.0762C262.678 93.5661 262.803 94.0696 263.122 94.4794C263.449 94.7529 263.871 94.9206 264.32 94.9553C269.334 95.7144 273.67 91.7878 276.116 87.8449C278.844 83.4899 280.433 78.6503 280.768 73.6814C281.274 65.3277 277.885 57.1094 278.094 48.7475C278.335 39.2409 283.196 29.6687 280.35 20.4985Z" fill="#3E373A"/>
<path d="M270.095 202.166L288.512 202.687L285.87 190.616L271.762 191.802L270.095 202.166Z" fill="#C3C7D9"/>
<path d="M327.16 173.556C325.921 174.922 321.125 177.384 320.661 178.205C320.197 179.025 314.472 181.487 311.529 181.898C308.586 182.308 299.305 184.089 297.602 185.045C296.381 185.734 286.58 187.917 280.141 189.127C278.397 189.492 276.632 189.772 274.853 189.968C272.068 190.104 241.585 180.942 241.585 180.942L247.463 175.608L247.788 175.509C249.45 175.013 257.128 172.719 261.39 171.628C266.191 170.397 271.762 165.338 271.762 165.338C271.762 165.338 279.96 162.876 281.047 162.601C282.133 162.326 278.261 153.029 278.261 153.029C278.261 153.029 296.056 150.846 303.019 148.996C309.983 147.145 326.079 147.831 329.017 155.08C331.956 162.33 328.418 172.19 327.16 173.556Z" fill="#4B4B5B"/>
<path d="M246.07 196.668C246.07 196.668 242.514 199.951 238.953 199.68C235.392 199.409 222.941 200.501 222.941 200.501C220.685 201.296 218.572 202.378 216.669 203.713C213.758 205.74 212.212 204.123 211.925 203.779L211.874 203.713C210.323 208.025 206.767 204.739 206.767 204.739C206.767 204.739 208.313 191.609 207.839 189.968C207.366 188.327 210.899 185.508 210.899 185.508L215.077 184.569L225.662 182.172L240.829 186.821L246.07 196.668Z" fill="#DDAA5D"/>
<path opacity="0.1" d="M215.058 184.569L211.925 203.779L211.874 203.713C210.323 208.025 206.767 204.739 206.767 204.739C206.767 204.739 208.313 191.609 207.839 189.968C207.366 188.327 210.899 185.508 210.899 185.508L215.058 184.569Z" fill="black"/>
<path opacity="0.1" d="M236.962 129.925C236.962 129.925 245.16 132.387 252.282 129.925Z" fill="black"/>
<path opacity="0.1" d="M264.951 134.578C264.951 134.578 268.354 136.08 270.986 134.578Z" fill="black"/>
<path opacity="0.1" d="M264.951 138.139C264.951 138.139 270.675 138.816 271.762 137.45Z" fill="black"/>
<path opacity="0.1" d="M263.094 145.791C263.094 145.791 273.846 144.56 276.515 142.919Z" fill="black"/>
<path opacity="0.1" d="M230.286 142.919C230.286 142.919 236.321 145.927 240.81 145.791Z" fill="black"/>
<path opacity="0.1" d="M280.137 189.127C278.393 189.492 276.627 189.772 274.849 189.968C272.063 190.104 241.581 180.942 241.581 180.942L247.458 175.608L247.783 175.509C248.712 176.088 249.473 176.584 250.016 176.962C252.574 178.742 255.044 176.416 255.972 176.416C256.901 176.416 264.946 182.296 264.946 182.296C264.946 182.296 272.374 183.801 273.614 185.168C274.854 186.534 279.185 186.263 279.956 187.219C280.188 187.515 280.216 188.241 280.137 189.127Z" fill="black"/>
<path d="M222.941 153.587C222.941 153.587 215.43 153.969 211.098 152.356C206.767 150.744 192.375 147.022 188.197 149.636C184.019 152.249 173.958 154.559 178.601 164.956C183.243 175.353 185.411 175.624 185.411 175.624C186.848 176.576 188.102 177.726 189.125 179.03C190.518 180.946 203.517 185.319 206.767 185.319C210.017 185.319 215.741 185.319 223.786 190.243C231.832 195.167 239.106 195.716 239.106 195.716C239.106 195.716 249.32 199.409 252.5 200.23C255.68 201.05 270.211 204.603 273.619 203.512C277.026 202.421 279.19 195.577 279.19 195.577C279.19 195.577 280.735 189.422 279.96 188.466C279.185 187.51 274.853 187.781 273.619 186.415C272.384 185.049 264.951 183.543 264.951 183.543C264.951 183.543 256.924 177.659 255.996 177.659C255.067 177.659 252.597 179.981 250.039 178.205C244.944 174.869 239.59 171.853 234.018 169.178C228.141 166.442 222.941 153.587 222.941 153.587Z" fill="#4B4B5B"/>
<path opacity="0.1" d="M207.839 157.555C209.177 157.313 210.559 157.348 211.879 157.656C213.199 157.964 214.42 158.537 215.448 159.331C219.162 162.068 231.66 167.562 231.66 167.562" fill="black"/>
<path opacity="0.1" d="M300.698 157.382C300.698 157.382 284.138 159.598 281.047 162.605Z" fill="black"/>
<path d="M319.732 202.687H319.003C316.385 202.605 307.513 202.359 305.805 202.687C303.795 203.098 277.175 202.687 277.175 202.687L282.379 201.731C282.379 201.731 280.448 195.749 281.673 195.253C281.673 195.253 274.709 191.199 279.96 188.462C285.211 185.726 290.87 186.879 290.87 186.879L304.05 182.932L306.58 182.172C306.58 182.172 321.436 182.858 325.456 191.884C329.477 200.911 319.732 202.687 319.732 202.687Z" fill="#DDAA5D"/>
<path opacity="0.1" d="M319.732 202.687H319.003C323.326 199.536 333.103 189.944 304.05 182.952L306.58 182.193C306.58 182.193 321.436 182.878 325.456 191.905C329.477 200.931 319.732 202.687 319.732 202.687Z" fill="black"/>
<path d="M292.421 192.052C292.869 192.052 293.233 191.731 293.233 191.334C293.233 190.938 292.869 190.616 292.421 190.616C291.972 190.616 291.608 190.938 291.608 191.334C291.608 191.731 291.972 192.052 292.421 192.052Z" fill="#4B4B5B"/>
<path d="M287.699 193.238C288.148 193.238 288.512 192.917 288.512 192.52C288.512 192.124 288.148 191.802 287.699 191.802C287.25 191.802 286.887 192.124 286.887 192.52C286.887 192.917 287.25 193.238 287.699 193.238Z" fill="#4B4B5B"/>
<g opacity="0.1">
<path opacity="0.1" d="M264.696 40.7878C264.876 36.2748 263.967 31.7796 262.031 27.6008C255.996 28.3967 249.385 24.2814 243.888 26.7432C239.821 28.565 238.545 33.1316 238.317 37.1566C238.261 38.2193 238.252 39.282 238.275 40.3446C238.275 39.9672 238.275 39.5856 238.317 39.2081C238.531 35.1831 239.807 30.6165 243.888 28.7947C249.385 26.3329 255.986 30.4359 262.031 29.6523C263.671 33.1919 264.574 36.9644 264.696 40.7878V40.7878Z" fill="black"/>
<path opacity="0.1" d="M217.927 40.0369C218.007 39.1429 217.987 38.2441 217.867 37.3536C217.375 33.7429 215.142 30.2923 214.738 26.772C214.218 31.0186 217.277 35.0969 217.867 39.4051C217.927 39.6266 217.927 39.8236 217.927 40.0369Z" fill="black"/>
<path opacity="0.1" d="M242.389 76.8571C242.101 79.9015 241.288 83.1552 238.675 85.1738C236.061 87.1925 231.247 87.0817 229.794 84.3163C229.329 83.4957 229.26 82.5397 228.809 81.7191C227.779 79.84 225.244 79.1096 223.029 78.3752C216.739 76.295 210.671 72.2207 209.32 66.3904C209.2 65.8622 209.117 65.3277 209.074 64.7902C208.96 66.0116 209.043 67.2411 209.32 68.4419C210.671 74.2558 216.748 78.3465 223.029 80.4267C225.244 81.1611 227.779 81.8914 228.809 83.7706C229.274 84.5912 229.353 85.539 229.794 86.3678C231.256 89.1332 236.08 89.2399 238.675 87.2253C241.27 85.2108 242.078 81.953 242.389 78.9086C242.53 77.3062 242.578 75.6984 242.533 74.0917C242.533 75.023 242.472 75.9421 242.389 76.8571Z" fill="black"/>
<path opacity="0.1" d="M278.247 46.8027C278.247 47.3977 278.247 47.9885 278.247 48.5793C278.507 40.9478 281.673 33.2752 281.362 25.8037C281.121 32.7131 278.423 39.7784 278.247 46.8027Z" fill="black"/>
<path opacity="0.1" d="M268.284 77.6736C268.399 77.1867 268.434 76.6881 268.391 76.1924C268.204 75.1306 267.783 74.1115 267.152 73.1931C264.468 68.6798 261.409 64.0599 261.047 59.0501C261.047 59.2635 261.014 59.4604 261.009 59.6902C260.824 65.2456 264.217 70.3292 267.152 75.2446C267.65 76.0059 268.031 76.8228 268.284 77.6736V77.6736Z" fill="black"/>
<path opacity="0.1" d="M280.916 71.7365C280.57 76.7074 278.969 81.5468 276.232 85.9C273.781 89.843 269.45 93.7696 264.431 93.0105C263.981 92.9763 263.559 92.8068 263.233 92.5305C263.139 92.4365 263.065 92.328 263.015 92.2104C262.959 92.5305 262.913 92.8546 262.885 93.1828C262.789 93.6715 262.914 94.174 263.233 94.582C263.559 94.8583 263.981 95.0277 264.431 95.062C269.45 95.821 273.781 91.8945 276.232 87.9515C278.969 83.5982 280.57 78.7589 280.916 73.788C280.972 72.8279 280.977 71.8719 280.944 70.9159C280.935 71.1908 280.935 71.4616 280.916 71.7365Z" fill="black"/>
</g>
<path opacity="0.1" d="M281.673 195.253C281.673 195.253 293.423 199.61 301.172 189.968" stroke="black" stroke-miterlimit="10"/>
<path opacity="0.1" d="M283.985 202.868C283.985 202.868 293.581 197.353 305.805 202.687" stroke="black" stroke-miterlimit="10"/>
<path opacity="0.1" d="M219.752 201.617C219.752 201.617 223.781 193.583 234.543 199.709" stroke="black" stroke-miterlimit="10"/>
<path opacity="0.1" d="M206.688 82.8105L214.905 76.2457C214.905 76.2457 246.766 74.3994 248.085 83.9717C248.085 83.9717 259.38 72.6228 283.136 75.1502L293.187 82.2238L265.406 92.9982L238.41 101.274L218.526 93.4085L206.688 82.8105Z" fill="black"/>
<path d="M206.688 83.2208L214.905 76.656C214.905 76.656 246.766 74.8097 248.085 84.382C248.085 84.382 259.38 73.0331 283.136 75.5605L293.187 82.6341L265.406 93.4085L238.41 101.684L218.526 93.8188L206.688 83.2208Z" fill="#D5D6DB"/>
<path opacity="0.1" d="M203.053 84.0414L206.688 122.474L245.22 124.185L243.549 85.9165L243.517 85.2723L203.053 84.0414Z" fill="black"/>
<path d="M203.053 83.2208L206.688 121.653L245.22 123.364L243.549 85.0959L243.517 84.4517L203.053 83.2208Z" fill="#00B0FF"/>
<path opacity="0.1" d="M294.951 83.2208L255.202 88.489V127.094L294.045 122.134L294.951 83.2208Z" fill="black"/>
<path d="M294.951 82.4002L255.202 87.6684V126.273L294.045 121.313L294.951 82.4002Z" fill="#00B0FF"/>
<path opacity="0.3" d="M285.578 91.8207L264.106 93.9296L264.575 100.396L285.564 98.3691L285.578 91.8207Z" fill="white"/>
<path d="M208.777 142.234L210.964 147.432C210.964 147.432 214.213 149.894 217.769 148.663C221.326 147.432 224.427 146.821 225.973 145.623C227.519 144.425 229.687 138.406 229.687 138.406C229.687 138.406 231.855 131.841 234.018 130.2C236.182 128.559 241.91 105.947 234.018 108.159C226.126 110.37 220.091 130.885 220.091 130.885C220.091 130.885 218.698 132.387 216.688 132.526C214.678 132.666 210.653 132.251 209.877 133.757C209.102 135.263 206.456 139.227 208.777 142.234Z" fill="#BE6F72"/>
<path opacity="0.1" d="M255.202 88.4849C253.167 88.8902 251.053 88.8691 249.028 88.4231C247.004 87.9771 245.126 87.1187 243.545 85.9165L245.22 124.181C245.22 124.181 249.167 127.956 255.202 127.094V88.4849Z" fill="black"/>
<path d="M255.202 87.6644C253.167 88.0696 251.053 88.0485 249.028 87.6025C247.004 87.1565 245.126 86.2981 243.545 85.0959L245.22 123.36C245.22 123.36 249.167 127.135 255.202 126.273V87.6644Z" fill="#00B0FF"/>
<path opacity="0.1" d="M255.202 87.6644C253.167 88.0696 251.053 88.0485 249.028 87.6025C247.004 87.1565 245.126 86.2981 243.545 85.0959L245.22 123.36C245.22 123.36 249.167 127.135 255.202 126.273V87.6644Z" fill="black"/>
<path opacity="0.1" d="M256.13 83.3521C256.13 83.3521 272.3 78.9824 276.515 79.5979Z" fill="black"/>
<path opacity="0.1" d="M238.043 81.4442C238.043 81.4442 222.37 78.1618 219.752 79.0932Z" fill="black"/>
<path opacity="0.1" d="M266.325 83.8978C266.325 83.8978 277.138 80.3939 281.047 82.0597Z" fill="black"/>
<path opacity="0.1" d="M260.88 171.796C262.555 170.684 264.338 169.705 266.209 168.871C268.995 167.685 274.101 164.608 274.101 164.608" fill="black"/>
<path opacity="0.1" d="M219.752 129.925C219.752 129.925 212.969 134.828 210.931 135.259C208.893 135.69 207.635 139.514 207.635 139.514" fill="black"/>
<path d="M290.963 141.504L288.799 146.714C288.799 146.714 285.55 149.176 281.989 147.945C278.428 146.714 275.336 146.103 273.786 144.905C272.235 143.707 270.072 137.688 270.072 137.688C270.072 137.688 267.908 131.123 265.74 129.482C263.572 127.841 257.848 105.229 265.74 107.441C273.632 109.652 279.668 130.167 279.668 130.167C279.668 130.167 281.06 131.669 283.071 131.808C285.081 131.948 289.106 131.533 289.881 133.039C290.656 134.545 293.284 138.509 290.963 141.504Z" fill="#BE6F72"/>
<path opacity="0.1" d="M287.17 131.919C287.17 131.919 291.603 134.438 291.585 137.45Z" fill="black"/>
<path d="M249.552 59.8942C261.005 59.8942 270.29 51.6885 270.29 41.5662C270.29 31.4439 261.005 23.2382 249.552 23.2382C238.099 23.2382 228.814 31.4439 228.814 41.5662C228.814 51.6885 238.099 59.8942 249.552 59.8942Z" fill="#BE6F72"/>
<path d="M236.53 35.6467C239.046 35.298 241.251 34.0055 243.656 33.2629C249.037 31.593 254.988 32.7377 260.434 34.2435C262.523 34.822 264.645 35.4744 266.836 35.4744C269.027 35.4744 271.353 34.6825 272.472 33.0126C273.503 31.4781 273.303 29.484 272.435 27.8716C271.567 26.2591 270.113 24.9626 268.646 23.7399C263.818 19.7107 257.829 15.9442 251.205 16.3545C248.54 16.5227 245.991 17.3638 243.54 18.2952C240.453 19.4707 237.449 20.8079 234.543 22.2997C232.31 23.4445 228.173 24.9749 226.887 27.0674C223.963 31.7817 231.98 36.2786 236.53 35.6467Z" fill="#3E373A"/>
<path opacity="0.1" d="M272.472 32.2894C271.353 33.9593 269.027 34.7511 266.836 34.7511C264.645 34.7511 262.523 34.1234 260.429 33.5449C254.984 32.0391 249.037 30.8902 243.651 32.5643C241.251 33.3069 239.041 34.6157 236.525 34.944C232.858 35.4528 226.952 32.6299 226.312 29.0398C225.592 33.1879 232.44 36.7411 236.525 36.1749C239.041 35.8261 241.251 34.5337 243.651 33.7952C249.037 32.1211 254.984 33.27 260.429 34.7758C262.523 35.3543 264.64 36.0067 266.836 35.982C269.032 35.9574 271.353 35.1943 272.472 33.5203C273.052 32.6096 273.28 31.5566 273.122 30.521C273.049 31.1445 272.828 31.7473 272.472 32.2894Z" fill="black"/>
<defs>
<linearGradient id="paint0_linear" x1="253.777" y1="205.937" x2="253.777" y2="1.19142e-05" gradientUnits="userSpaceOnUse">
<stop stop-color="#808080" stop-opacity="0.25"/>
<stop offset="0.54" stop-color="#808080" stop-opacity="0.12"/>
<stop offset="1" stop-color="#808080" stop-opacity="0.1"/>
</linearGradient>
</defs>
</svg>
