<svg width="355" height="277" viewBox="0 0 355 277" fill="none" xmlns="http://www.w3.org/2000/svg">
<path opacity="0.1" d="M99.4171 152.547H99.9131C99.7386 152.441 99.5918 152.291 99.4859 152.111C99.3801 151.931 99.3184 151.726 99.3065 151.515V151.515C99.3065 150.705 100.258 150.042 101.421 150.042H116.22C117.383 150.042 118.335 150.705 118.335 151.515C118.335 152.33 117.383 152.993 116.22 152.993H115.727C115.901 153.1 116.047 153.25 116.152 153.43C116.257 153.609 116.318 153.814 116.33 154.024C116.33 154.726 115.64 155.298 114.715 155.456H118.975C120.135 155.456 121.087 156.123 121.087 156.933C121.087 157.744 120.135 158.411 118.975 158.411H104.18C103.02 158.411 102.068 157.747 102.068 156.933C102.068 156.231 102.759 155.656 103.684 155.502H99.4171C98.2574 155.502 97.3055 154.835 97.3055 154.024C97.3055 153.214 98.2641 152.547 99.4171 152.547Z" fill="#00B0FF"/>
<path d="M217.505 230.942C216.676 231.629 215.847 232.316 215.018 233.001C214.532 233.405 214.04 233.805 213.55 234.205C213.195 234.496 212.843 234.787 212.481 235.075C210.668 236.538 208.831 237.97 206.957 239.338C206.512 239.665 206.059 239.991 205.617 240.31C201.866 242.996 197.877 245.297 193.704 247.181L193.651 247.206V230.942H217.505Z" fill="#65617D"/>
<path d="M233.403 164.293L232.062 165.935L226.646 172.539L219.57 172.988L208.244 173.718C208.244 173.718 192.974 154.453 195.843 150.26C196.885 148.748 197.056 146.751 196.848 144.867C196.821 144.607 196.785 144.348 196.741 144.091C196.398 142.098 195.798 140.162 194.958 138.337L195.333 138.158L195.575 138.042L208.928 131.663L212.233 130.084C212.398 131.037 212.703 131.958 213.138 132.814C213.202 132.947 213.272 133.08 213.346 133.207C217.901 141.102 232.508 136.109 232.508 136.109L233.403 164.293Z" fill="#EE8E9E"/>
<path d="M253.149 154.436C253.048 159.215 252.304 161.278 252.304 161.278L233.403 164.293L232.696 159.155L229.897 138.87L232.525 136.119C233.575 136.356 234.663 136.338 235.705 136.065C236.746 135.793 237.715 135.273 238.535 134.547C241.287 132.056 251.05 132.319 252.552 144.372C252.993 147.706 253.193 151.07 253.149 154.436V154.436Z" fill="#EE8E9E"/>
<path d="M248.674 210.414C248.674 210.414 252.927 205.042 253.055 201.505L248.798 194.034L245.044 189.824L238.032 203.993C238.032 203.993 242.664 212.379 248.674 210.414Z" fill="#DFE5EE"/>
<path opacity="0.1" d="M248.674 210.414C248.674 210.414 252.927 205.042 253.055 201.505L248.798 194.034L245.044 189.824L238.032 203.993C238.032 203.993 242.664 212.379 248.674 210.414Z" fill="black"/>
<path d="M213.55 234.205C213.195 234.496 212.843 234.787 212.481 235.075C210.668 236.538 208.831 237.97 206.957 239.338C206.512 239.665 206.059 239.991 205.617 240.31H187.312H105.079H98.694L67.0596 239.124L41.6194 238.9L35.251 238.549L3.47583 236.794C2.31175 232.791 1.4367 228.703 0.858069 224.562C0.727348 223.629 0.610035 222.692 0.522888 221.755L35.2376 223.769L41.606 224.145L98.6806 227.478L105.066 227.85L187.299 232.657L193.627 233.029H193.681L213.55 234.205Z" fill="#36A0CF"/>
<path d="M256.433 208.067C249.458 210.172 242.691 212.884 236.323 216.727C235.816 217.032 235.317 217.344 234.811 217.664C234.305 217.983 233.805 218.302 233.319 218.632C232.833 218.962 232.344 219.288 231.861 219.622L231.117 220.148L230.39 220.667C229.673 221.183 228.965 221.72 228.258 222.239L228.231 222.26C227.765 222.611 227.303 222.962 226.84 223.313C224.229 225.338 221.675 227.457 219.131 229.584C218.595 230.033 218.057 230.481 217.519 230.927L215.039 232.987C214.553 233.391 214.06 233.791 213.57 234.191C213.215 234.482 212.863 234.773 212.501 235.061L193.731 234.124H193.677L187.349 233.815L105.079 229.734L98.694 229.415L41.6194 226.576L35.2509 226.257L0.858055 224.562C0.727335 223.629 0.610022 222.692 0.522875 221.755C0.348581 220.148 0.218976 218.534 0.134064 216.913L35.2476 203.93L41.616 201.568L47.4012 199.428L57.9427 200.003L82.307 201.312L98.704 202.214L105.089 202.565L109.168 202.789L110.144 202.845L144.473 204.723L144.835 204.747L160.153 205.582H160.327H160.428L161.959 205.663L167.181 205.951L173.711 206.302L175.863 206.421L176.268 206.446L179.312 206.61L180.18 206.656L183.086 206.818L184.242 206.884H184.279H184.52L187.239 207.035L191.449 207.267H191.469L192.776 207.337H192.917L193.698 207.382L195.615 207.488L197.291 207.579H197.307L199.188 207.681H199.218L200.643 207.761L201.735 207.821L205.613 208.035L206.31 208.074H206.552L206.887 208.095L208.023 208.158L208.533 208.186L212.488 208.4H212.85L218.689 208.347H218.729L240.928 208.158H241.354H241.803H243.123L250.269 208.098H251.335L256.433 208.067Z" fill="#7EC1DF"/>
<path d="M106.611 208.547L108.676 220.046L164.812 219.162C164.812 219.162 169.035 220.439 168.941 216.902C168.941 216.902 177.485 208.449 220.76 218.278L204.145 204.617L158.728 207.172L106.065 205.698L106.611 208.547Z" fill="#00B0FF"/>
<path d="M107.643 205.796L109.614 218.278C109.614 218.278 157.88 216.804 165.469 218.18L159.734 206.779C159.734 206.779 130.55 203.93 107.643 205.796Z" fill="white"/>
<path opacity="0.1" d="M107.643 205.796L109.614 218.278C109.614 218.278 157.88 216.804 165.469 218.18L159.734 206.779C159.734 206.779 130.55 203.93 107.643 205.796Z" fill="black"/>
<path d="M108.364 205.751L110.308 217.358C110.308 217.358 157.961 215.99 165.469 217.267L159.814 206.667C159.814 206.667 130.982 204.014 108.364 205.751Z" fill="white"/>
<path opacity="0.1" d="M109.239 206.109L111.133 216.965C111.133 216.965 157.739 215.685 165.097 216.881L159.566 206.961C159.566 206.961 131.364 204.47 109.239 206.109Z" fill="black"/>
<path d="M109.614 205.712L111.518 216.59C111.518 216.59 158.125 215.309 165.482 216.506L159.938 206.575C159.938 206.575 131.739 204.088 109.614 205.712Z" fill="white"/>
<path d="M76.6391 176.191C76.6391 176.191 79.0792 179.528 75.5162 184.571C71.9532 189.613 69.0104 193.866 70.2003 197.01C70.2003 197.01 75.5631 187.648 79.954 187.536C84.3449 187.424 81.4556 181.82 76.6391 176.191Z" fill="#DB9224"/>
<path opacity="0.1" d="M76.6391 176.191C76.8535 176.515 77.0217 176.87 77.1385 177.244C81.4087 182.507 83.6846 187.42 79.5786 187.525C75.7542 187.638 71.1689 194.796 70.0695 196.606C70.1075 196.742 70.1511 196.879 70.2003 197.017C70.2003 197.017 75.5632 187.655 79.954 187.543C84.3449 187.431 81.4556 181.82 76.6391 176.191Z" fill="#DB9224"/>
<path d="M81.1741 180.448C81.1741 181.62 81.0467 182.574 80.8925 182.574C80.7383 182.574 80.611 181.62 80.611 180.448C80.611 179.276 80.7685 179.823 80.9227 179.823C81.0769 179.823 81.1741 179.272 81.1741 180.448Z" fill="#FFD037"/>
<path d="M82.7293 181.848C81.7439 182.413 80.8858 182.753 80.8121 182.609C80.7383 182.465 81.4824 181.907 82.4612 181.332C83.4399 180.757 83.0578 181.178 83.1315 181.332C83.2053 181.486 83.7147 181.286 82.7293 181.848Z" fill="#FFD037"/>
<path d="M63.7581 176.191C63.7581 176.191 61.318 179.528 64.8843 184.571C68.4506 189.613 71.3868 193.866 70.2002 197.01C70.2002 197.01 64.8206 187.648 60.4431 187.536C56.0657 187.424 58.9415 181.82 63.7581 176.191Z" fill="#DB9224"/>
<path opacity="0.1" d="M63.7581 176.191C63.5454 176.516 63.3773 176.87 63.2587 177.244C58.9885 182.507 56.7126 187.42 60.8185 187.525C64.643 187.638 69.2316 194.796 70.331 196.606C70.2952 196.742 70.2516 196.879 70.2003 197.017C70.2003 197.017 64.8206 187.655 60.4431 187.543C56.0657 187.431 58.9415 181.82 63.7581 176.191Z" fill="black"/>
<path d="M59.2231 180.448C59.2231 181.62 59.3505 182.574 59.5046 182.574C59.6588 182.574 59.7862 181.62 59.7862 180.448C59.7862 179.276 59.6287 179.823 59.4745 179.823C59.3203 179.823 59.2231 179.272 59.2231 180.448Z" fill="#FFD037"/>
<path d="M57.6679 181.848C58.6533 182.413 59.5147 182.753 59.5884 182.609C59.6622 182.465 58.9181 181.907 57.9393 181.332C56.9606 180.757 57.3427 181.178 57.269 181.332C57.1952 181.486 56.6824 181.286 57.6679 181.848Z" fill="#FFD037"/>
<path d="M83.3125 192.508L83.1919 193.561L83.0209 195.031L82.9505 195.645L82.7796 197.119L82.7058 197.733L82.5316 199.207L80.5808 215.951C80.4065 217.446 78.0736 218.611 75.2581 218.611H65.129C62.3134 218.611 59.9839 217.446 59.8096 215.951L57.8555 199.207L57.6846 197.733L57.6142 197.119L57.4399 195.645L57.3695 195.031L57.1986 193.561L57.0746 192.508C56.9774 191.662 58.2376 190.95 59.8331 190.95H80.5674C82.1595 190.95 83.4231 191.662 83.3125 192.508Z" fill="#65617D"/>
<path d="M83.2019 193.55L83.031 195.024H57.3695L57.1986 193.55H83.2019Z" fill="#9D9CB5"/>
<path d="M82.9606 195.638L82.7897 197.112H57.6142L57.4399 195.638H82.9606Z" fill="#9D9CB5"/>
<path d="M82.7159 197.726L82.545 199.196H57.8555L57.6846 197.726H82.7159Z" fill="#9D9CB5"/>
<path d="M114.246 191.154C114.246 191.154 107.737 184.602 107.989 193.119C108.24 201.635 114.246 191.154 114.246 191.154Z" fill="#EE8E9E"/>
<path d="M172.699 176.216C172.554 176.876 171.854 177.97 170.761 179.342C165.117 186.459 149.058 201.249 145.911 203.993C142.157 207.27 133.771 206.098 133.771 206.098L118.252 206.361C118.252 206.361 102.857 205.705 101.603 186.711C100.35 167.717 119.626 192.476 119.626 192.476C119.626 192.476 124.453 193.445 126.011 193.262C128.264 193.003 133.02 190.252 133.02 190.252C133.02 190.252 136.274 187.76 139.278 185.666C142.281 183.571 153.546 169.679 155.551 164.829C156.821 161.752 160.914 156.72 163.739 153.457C165.361 151.58 166.565 150.299 166.565 150.299C166.565 150.299 173.573 172.153 172.699 176.216Z" fill="#EE8E9E"/>
<path opacity="0.1" d="M172.699 176.216C172.554 176.876 171.854 177.97 170.761 179.342C165.063 173.268 163.873 161.149 163.739 153.443C165.361 151.566 166.565 150.285 166.565 150.285C166.565 150.285 173.573 172.153 172.699 176.216Z" fill="black"/>
<path opacity="0.1" d="M232.059 165.935L226.646 172.539L219.57 172.988L208.244 173.718C208.244 173.718 192.974 154.453 195.843 150.26C196.885 148.748 197.056 146.751 196.848 144.867C196.821 144.607 196.785 144.348 196.741 144.091C196.398 142.098 195.798 140.162 194.958 138.337L195.333 138.158L195.575 138.042C196.171 139.78 196.582 141.582 196.801 143.414C196.838 143.663 196.872 143.923 196.905 144.19C197.023 145.137 197.13 146.19 197.24 147.348C198.112 157.952 204.484 161.942 207.36 163.212C208.284 163.62 209.188 164.078 210.068 164.584C212.835 166.181 216.025 166.785 219.151 166.303C226.25 165.328 232.039 159.927 232.039 159.927L232.069 165.243L232.059 165.935Z" fill="black"/>
<path d="M232.277 207.14C232.277 207.14 185.717 207.007 179.58 202.554C173.443 198.101 177.079 192.203 176.952 190.761C176.825 189.318 174.2 185.652 173.325 184.599C172.45 183.546 174.076 182.241 173.825 179.36C173.573 176.479 171.448 179.36 171.448 179.36C162.683 170.054 164.56 146.471 164.56 146.471C164.56 146.471 172.94 144.246 176.962 142.537C178.051 142.074 179.747 141.414 181.655 140.702L182.362 140.435C187.279 138.593 193.124 136.512 193.124 136.512C193.124 136.512 194.247 135.681 195.377 138.168C195.893 139.312 196.413 141.155 196.828 144.099C196.865 144.348 196.899 144.607 196.932 144.874C197.049 145.821 197.157 146.874 197.267 148.032C198.139 158.636 204.511 162.626 207.386 163.896C208.311 164.304 209.215 164.762 210.095 165.268C212.861 166.865 216.052 167.469 219.178 166.987C226.277 166.012 232.066 160.612 232.066 160.612L232.096 165.928L232.183 181.9L232.277 207.14Z" fill="#DFE5EE"/>
<path d="M230.273 186.438L229.522 191.417C229.522 191.417 210.996 196.263 203.74 197.705C196.483 199.147 180.833 197.312 179.707 200.456C178.581 203.6 184.463 207.926 184.463 207.926L203.234 207.663L238.655 210.548C238.655 210.548 252.173 198.098 247.792 189.448C243.412 180.799 230.273 186.438 230.273 186.438Z" fill="#EE8E9E"/>
<path opacity="0.1" d="M192.099 147.127C192.099 147.127 183.585 154.464 185.214 158.004C186.843 161.545 192.099 147.127 192.099 147.127Z" fill="black"/>
<path opacity="0.1" d="M181.584 160.359C181.584 160.359 172.947 175.953 173.449 177.132C173.952 178.311 176.329 182.504 176.201 179.36C176.074 176.216 181.584 160.359 181.584 160.359Z" fill="black"/>
<path opacity="0.1" d="M185.09 163.114C185.09 163.114 183.079 172.809 181.085 176.872C179.09 180.935 185.09 163.114 185.09 163.114Z" fill="black"/>
<path opacity="0.1" d="M213.363 133.217C211.708 136.395 209.35 139.111 206.487 141.139C203.623 143.167 200.338 144.447 196.905 144.874H196.865C191.465 145.538 186.024 144.047 181.628 140.698C186.655 138.797 193.098 136.509 193.098 136.509C193.098 136.509 194.221 135.677 195.35 138.165L212.25 130.094C212.44 131.197 212.817 132.254 213.363 133.217V133.217Z" fill="black"/>
<path d="M216.004 121.575C216.01 125.521 215.028 129.4 213.155 132.824C212.26 134.457 211.176 135.968 209.927 137.323C206.443 141.121 201.8 143.524 196.801 144.116H196.758C195.959 144.212 195.155 144.26 194.351 144.26C189.031 144.26 183.897 142.21 179.929 138.5C175.96 134.79 173.436 129.681 172.836 124.147C172.743 123.297 172.697 122.443 172.699 121.589C172.699 115.577 174.98 109.811 179.04 105.56C183.101 101.309 188.609 98.9208 194.351 98.9208C200.094 98.9208 205.601 101.309 209.662 105.56C213.723 109.811 216.004 115.577 216.004 121.589V121.575Z" fill="#EE8E9E"/>
<path opacity="0.1" d="M230.025 164.468L232.036 161.31C232.036 161.31 243.05 147.551 253.822 156.331L253.447 168.387C253.447 168.387 252.944 172.054 252.193 174.002C251.978 174.58 251.899 175.204 251.965 175.82C252.03 176.437 252.237 177.028 252.569 177.542C252.569 177.542 253.196 180.7 252.321 180.7C251.446 180.7 249.941 185.416 249.941 185.416C249.941 185.416 247.813 190.266 249.066 192.494C250.32 194.722 253.072 202.189 253.072 202.189C253.072 202.189 248.691 199.438 247.437 194.852C247.437 194.852 236.799 186.202 228.536 191.694L230.025 164.468Z" fill="black"/>
<path opacity="0.1" d="M253.149 154.436C253.048 159.215 252.304 161.278 252.304 161.278L233.403 164.293L232.696 159.155C235.17 156.454 244.166 147.864 253.149 154.436Z" fill="black"/>
<path d="M230.025 163.766L232.036 160.608C232.036 160.608 243.05 146.85 253.822 155.629L253.447 167.686C253.447 167.686 252.944 171.353 252.193 173.3C251.978 173.878 251.899 174.502 251.965 175.119C252.03 175.735 252.237 176.326 252.569 176.841C252.569 176.841 253.196 179.999 252.321 179.999C251.446 179.999 249.941 184.715 249.941 184.715C249.941 184.715 247.813 189.564 249.066 191.792C250.32 194.02 253.072 201.487 253.072 201.487C253.072 201.487 248.691 198.736 247.437 194.15C247.437 194.15 236.799 185.501 228.536 190.992L230.025 163.766Z" fill="#DFE5EE"/>
<path opacity="0.1" d="M247.796 154.857C247.796 154.857 229.649 166.521 230.524 176.749C230.524 176.749 240.663 158.001 247.796 154.857Z" fill="black"/>
<path opacity="0.1" d="M232.056 165.938L232.143 181.911C228.711 182.072 225.476 181.606 222.919 179.279C221.139 177.658 220.103 175.419 219.567 172.998C219.168 171.047 219.021 169.049 219.131 167.058C219.129 167.038 219.129 167.018 219.131 166.998C219.342 162.587 220.311 158.176 219.801 153.794C219.292 149.411 216.755 144.786 212.612 143.863C211.794 143.677 210.876 143.611 210.292 142.983C209.649 142.281 209.679 141.19 209.749 140.218L209.87 138.579C209.9 138.158 209.914 137.74 209.914 137.323C209.911 133.597 208.673 129.988 206.411 127.112C204.15 124.236 201.004 122.271 197.512 121.554L197.378 121.529C196.211 121.283 194.998 121.041 193.832 121.322C191.613 121.859 190.178 124.112 188.134 125.182C184.212 127.231 177.673 124.989 173.567 124.283C173.299 124.238 173.044 124.185 172.799 124.126C172.706 123.276 172.66 122.422 172.662 121.568C172.663 118.096 173.426 114.67 174.893 111.556C176.359 108.442 178.489 105.722 181.118 103.606C183.748 101.49 186.806 100.035 190.058 99.3524C193.31 98.6699 196.668 98.7785 199.873 99.6698C203.078 100.561 206.045 102.211 208.545 104.493C211.044 106.775 213.01 109.627 214.29 112.83C215.57 116.033 216.13 119.501 215.926 122.967C215.723 126.432 214.762 129.802 213.118 132.817C213.182 132.951 213.252 133.084 213.326 133.21C217.881 141.105 232.488 136.112 232.488 136.112L233.366 164.286L232.056 165.938Z" fill="black"/>
<path d="M190.12 124.575C192.151 123.501 193.586 121.249 195.818 120.715C196.981 120.434 198.195 120.677 199.368 120.919L199.502 120.947C203.194 121.712 206.49 123.867 208.765 127.006C211.04 130.144 212.137 134.047 211.847 137.976L211.726 139.614C211.652 140.583 211.622 141.681 212.272 142.376C212.852 143.004 213.771 143.078 214.588 143.253C218.731 144.18 221.269 148.78 221.778 153.187C222.288 157.594 221.302 162.019 221.108 166.447C220.913 170.876 221.691 175.764 224.889 178.673C229.916 183.234 237.558 180.638 244.212 180.22C241.269 180.22 239.063 177.041 238.902 173.967C238.742 170.893 240.049 167.967 241.299 165.195C242.549 162.423 243.803 159.44 243.525 156.373C243.143 152.162 239.972 148.79 238.758 144.737C237.344 140.021 238.708 134.958 239.348 130.056C240.552 120.877 238.678 110.543 231.89 104.609C229.048 102.128 225.572 100.602 222.448 98.5246C216.851 94.8086 212.437 89.3592 206.779 85.745C201.121 82.1308 193.177 80.7904 188.24 85.4222C186.329 87.2152 185.096 89.7031 183.132 91.433C179.294 94.8191 173.194 94.8823 170.117 99.0369C167.469 102.613 168.186 107.69 169.034 112.129C170.164 118.048 169.527 122.656 175.57 123.708C179.659 124.386 186.195 126.628 190.12 124.575Z" fill="#573B51"/>
<path opacity="0.1" d="M238.716 177.609C233.872 178.23 229.073 178.549 225.546 175.349C222.349 172.44 221.561 167.556 221.766 163.124C221.97 158.692 222.949 154.264 222.436 149.86C221.923 145.457 219.389 140.856 215.246 139.93C214.429 139.747 213.514 139.681 212.93 139.053C212.283 138.351 212.31 137.256 212.384 136.288L212.505 134.649C212.794 130.721 211.698 126.818 209.422 123.681C207.147 120.543 203.852 118.388 200.16 117.624L200.026 117.595C198.853 117.353 197.639 117.111 196.476 117.392C194.257 117.929 192.823 120.199 190.778 121.252C186.853 123.305 180.321 121.062 176.208 120.357C170.175 119.322 170.805 114.708 169.672 108.777C169.038 105.465 168.479 101.795 169.337 98.6576C169.176 98.8366 169.022 99.0085 168.874 99.2226C166.226 102.798 166.943 107.876 167.791 112.314C168.921 118.234 168.284 122.841 174.328 123.894C178.437 124.596 184.973 126.842 188.898 124.789C190.929 123.715 192.364 121.462 194.596 120.929C195.759 120.648 196.972 120.89 198.145 121.132L198.28 121.161C201.971 121.925 205.267 124.081 207.542 127.22C209.818 130.358 210.914 134.261 210.624 138.189L210.504 139.828C210.43 140.797 210.4 141.895 211.05 142.59C211.63 143.218 212.548 143.291 213.366 143.467C217.509 144.393 220.046 148.994 220.556 153.401C221.065 157.808 220.083 162.233 219.885 166.661C219.688 171.089 220.468 175.977 223.666 178.886C228.694 183.448 236.336 180.851 242.989 180.434C241.183 180.444 239.664 179.244 238.716 177.609Z" fill="black"/>
<path d="M102.686 189.315L123.35 181.244C123.838 181.053 124.379 181.073 124.854 181.3C125.328 181.526 125.698 181.94 125.88 182.451V182.451C126.063 182.963 126.044 183.529 125.828 184.026C125.611 184.523 125.216 184.909 124.727 185.101L104.064 193.171L99.6325 192.708L102.686 189.315Z" fill="#5C5C8E"/>
<path opacity="0.1" d="M125.257 181.792C125.439 182.304 125.42 182.87 125.203 183.367C124.986 183.864 124.59 184.25 124.101 184.441L103.423 192.54L100.098 192.189L99.6191 192.722L104.05 193.185L124.714 185.115C125.202 184.923 125.598 184.537 125.814 184.04C126.03 183.543 126.049 182.977 125.867 182.465V182.465C125.715 182.039 125.432 181.678 125.063 181.437C125.137 181.549 125.202 181.668 125.257 181.792V181.792Z" fill="white"/>
<path d="M102.689 189.315L104.064 193.171L100.43 192.789L99.6358 192.705L100.722 191.497L102.689 189.315Z" fill="#EFC8C4"/>
<path d="M100.718 191.487C100.803 191.553 100.876 191.635 100.933 191.729C100.967 191.785 100.985 191.85 100.985 191.917C100.985 191.983 100.967 192.048 100.933 192.104C100.876 192.166 100.809 192.217 100.735 192.255C100.652 192.313 100.583 192.39 100.532 192.48C100.481 192.57 100.449 192.671 100.44 192.775L99.6425 192.694L100.718 191.487Z" fill="#727A9C"/>
<path d="M167.567 213.944C167.567 213.944 185.466 210.011 215.498 214.997L203.733 205.958L182.328 201.372L167.185 205.582L167.567 213.944Z" fill="white"/>
<path opacity="0.1" d="M167.567 213.944C167.567 213.944 185.466 210.011 215.498 214.997L203.733 205.958L182.328 201.372L167.185 205.582L167.567 213.944Z" fill="black"/>
<path d="M165.469 218.197C165.469 218.197 174.482 192.673 220.774 218.278L204.159 207.084C204.159 207.084 164.356 195.571 159.757 208.839L165.469 218.197Z" fill="white"/>
<path opacity="0.1" d="M165.469 218.179C165.469 218.179 174.482 190.89 220.774 218.671L204.159 206.53C204.159 206.53 164.342 192.761 159.734 207.172L165.469 218.179Z" fill="black"/>
<path d="M165.469 218.19C165.469 218.19 174.482 190.497 220.774 218.278L204.159 206.137C204.159 206.137 164.356 192.761 159.757 207.189L165.469 218.19Z" fill="white"/>
<path opacity="0.1" d="M165.469 218.197C165.469 218.197 174.482 187.42 220.774 218.671L204.145 205.01C204.145 205.01 164.342 190.975 159.744 207.172L165.469 218.197Z" fill="black"/>
<path d="M165.469 218.18C165.469 218.18 174.482 187.027 220.774 218.278L204.145 204.617C204.145 204.617 164.342 190.582 159.744 206.779L165.469 218.18Z" fill="white"/>
</svg>
