<svg width="257" height="166" viewBox="0 0 257 166" fill="none" xmlns="http://www.w3.org/2000/svg">
<rect width="257" height="166" fill="url(#paint0_linear)"/>
<path opacity="0.1" d="M99.4171 70.5471H99.9131C99.7386 70.4409 99.5918 70.2911 99.4859 70.1111C99.3801 69.9311 99.3184 69.7264 99.3065 69.5154V69.5154C99.3065 68.7049 100.258 68.0417 101.421 68.0417H116.22C117.383 68.0417 118.335 68.7049 118.335 69.5154C118.335 70.3295 117.383 70.9927 116.22 70.9927H115.727C115.901 71.0995 116.047 71.2496 116.152 71.4295C116.257 71.6094 116.318 71.8137 116.33 72.0243C116.33 72.7261 115.64 73.2981 114.715 73.456H118.975C120.135 73.456 121.087 74.1227 121.087 74.9332C121.087 75.7438 120.135 76.4105 118.975 76.4105H104.18C103.02 76.4105 102.068 75.7473 102.068 74.9332C102.068 74.2315 102.759 73.656 103.684 73.5016H99.4171C98.2574 73.5016 97.3055 72.8349 97.3055 72.0243C97.3055 71.2138 98.2641 70.5471 99.4171 70.5471Z" fill="#00B0FF"/>
<path d="M217.505 148.942C216.676 149.629 215.847 150.316 215.018 151.001C214.532 151.405 214.04 151.805 213.55 152.205C213.195 152.496 212.843 152.787 212.481 153.075C210.668 154.538 208.831 155.97 206.957 157.338C206.512 157.665 206.059 157.991 205.617 158.31C201.866 160.996 197.877 163.297 193.704 165.181L193.651 165.206V148.942H217.505Z" fill="#65617D"/>
<path d="M233.403 82.2925L232.062 83.9347L226.646 90.5386L219.57 90.9877L208.244 91.7176C208.244 91.7176 192.974 72.4534 195.843 68.2602C196.885 66.7479 197.056 64.7513 196.848 62.867C196.821 62.6073 196.785 62.3476 196.741 62.0915C196.398 60.0977 195.798 58.1619 194.958 56.3368L195.333 56.1578L195.575 56.0421L208.928 49.6628L212.233 48.0838C212.398 49.0374 212.703 49.9584 213.138 50.8137C213.202 50.9471 213.272 51.0804 213.346 51.2067C217.901 59.1019 232.508 54.1086 232.508 54.1086L233.403 82.2925Z" fill="#E8BCC3"/>
<path d="M253.149 72.4359C253.048 77.2151 252.304 79.2783 252.304 79.2783L233.403 82.2925L232.696 77.1554L229.897 56.8702L232.525 54.1192C233.575 54.3562 234.663 54.3378 235.705 54.0652C236.746 53.7927 237.715 53.2733 238.535 52.5472C241.287 50.0558 251.05 50.319 252.552 62.3722C252.993 65.7062 253.193 69.0704 253.149 72.4359V72.4359Z" fill="#E8BCC3"/>
<path d="M248.674 128.414C248.674 128.414 252.927 123.042 253.055 119.505L248.798 112.034L245.044 107.824L238.032 121.993C238.032 121.993 242.664 130.379 248.674 128.414Z" fill="#DFE5EE"/>
<path opacity="0.1" d="M248.674 128.414C248.674 128.414 252.927 123.042 253.055 119.505L248.798 112.034L245.044 107.824L238.032 121.993C238.032 121.993 242.664 130.379 248.674 128.414Z" fill="black"/>
<path d="M213.55 152.205C213.195 152.496 212.843 152.787 212.481 153.075C210.668 154.538 208.831 155.97 206.957 157.338C206.512 157.665 206.059 157.991 205.617 158.31H187.312H105.079H98.694L67.0596 157.124L41.6194 156.9L35.251 156.549L3.47583 154.794C2.31175 150.791 1.4367 146.703 0.858069 142.562C0.727348 141.629 0.610035 140.692 0.522888 139.755L35.2376 141.769L41.606 142.145L98.6806 145.478L105.066 145.85L187.299 150.657L193.627 151.029H193.681L213.55 152.205Z" fill="#36A0CF"/>
<path d="M256.433 126.067C249.458 128.172 242.691 130.884 236.323 134.727C235.816 135.032 235.317 135.344 234.811 135.664C234.305 135.983 233.805 136.302 233.319 136.632C232.833 136.962 232.344 137.288 231.861 137.622L231.117 138.148L230.39 138.667C229.673 139.183 228.965 139.72 228.258 140.239L228.231 140.26C227.765 140.611 227.303 140.962 226.84 141.313C224.229 143.338 221.675 145.457 219.131 147.584C218.595 148.033 218.057 148.481 217.519 148.927L215.039 150.987C214.553 151.391 214.06 151.791 213.57 152.191C213.215 152.482 212.863 152.773 212.501 153.061L193.731 152.124H193.677L187.349 151.815L105.079 147.734L98.694 147.415L41.6194 144.576L35.2509 144.257L0.858055 142.562C0.727335 141.629 0.610022 140.692 0.522875 139.755C0.348581 138.148 0.218976 136.534 0.134064 134.913L35.2476 121.93L41.616 119.568L47.4012 117.428L57.9427 118.003L82.307 119.312L98.704 120.214L105.089 120.565L109.168 120.789L110.144 120.845L144.473 122.723L144.835 122.747L160.153 123.582H160.327H160.428L161.959 123.663L167.181 123.951L173.711 124.302L175.863 124.421L176.268 124.446L179.312 124.61L180.18 124.656L183.086 124.818L184.242 124.884H184.279H184.52L187.239 125.035L191.449 125.267H191.469L192.776 125.337H192.917L193.698 125.382L195.615 125.488L197.291 125.579H197.307L199.188 125.681H199.218L200.643 125.761L201.735 125.821L205.613 126.035L206.31 126.074H206.552L206.887 126.095L208.023 126.158L208.533 126.186L212.488 126.4H212.85L218.689 126.347H218.729L240.928 126.158H241.354H241.803H243.123L250.269 126.098H251.335L256.433 126.067Z" fill="#7EC1DF"/>
<path d="M106.611 126.547L108.676 138.046L164.812 137.162C164.812 137.162 169.035 138.439 168.941 134.902C168.941 134.902 177.485 126.449 220.76 136.278L204.145 122.617L158.728 125.172L106.065 123.698L106.611 126.547Z" fill="#00B0FF"/>
<path d="M107.643 123.796L109.614 136.278C109.614 136.278 157.88 134.804 165.469 136.18L159.734 124.779C159.734 124.779 130.55 121.93 107.643 123.796Z" fill="white"/>
<path opacity="0.1" d="M107.643 123.796L109.614 136.278C109.614 136.278 157.88 134.804 165.469 136.18L159.734 124.779C159.734 124.779 130.55 121.93 107.643 123.796Z" fill="black"/>
<path d="M108.364 123.751L110.308 135.358C110.308 135.358 157.961 133.99 165.469 135.267L159.814 124.667C159.814 124.667 130.982 122.014 108.364 123.751Z" fill="white"/>
<path opacity="0.1" d="M109.239 124.109L111.133 134.965C111.133 134.965 157.739 133.685 165.097 134.881L159.566 124.961C159.566 124.961 131.364 122.47 109.239 124.109Z" fill="black"/>
<path d="M109.614 123.712L111.518 134.59C111.518 134.59 158.125 133.309 165.482 134.506L159.938 124.575C159.938 124.575 131.739 122.088 109.614 123.712Z" fill="white"/>
<path d="M76.6391 94.1914C76.6391 94.1914 79.0792 97.5284 75.5162 102.571C71.9532 107.613 69.0104 111.866 70.2003 115.01C70.2003 115.01 75.5632 105.648 79.954 105.536C84.3449 105.424 81.4556 99.8197 76.6391 94.1914Z" fill="#DB9224"/>
<path opacity="0.1" d="M76.6391 94.1914C76.8535 94.515 77.0217 94.8696 77.1385 95.2441C81.4087 100.507 83.6846 105.42 79.5786 105.525C75.7542 105.638 71.1689 112.796 70.0695 114.606C70.1075 114.742 70.1511 114.879 70.2003 115.017C70.2003 115.017 75.5632 105.655 79.954 105.543C84.3449 105.431 81.4556 99.8197 76.6391 94.1914Z" fill="#DB9224"/>
<path d="M81.1741 98.4477C81.1741 99.6197 81.0467 100.574 80.8925 100.574C80.7383 100.574 80.611 99.6197 80.611 98.4477C80.611 97.2758 80.7685 97.8232 80.9227 97.8232C81.0769 97.8232 81.1741 97.2723 81.1741 98.4477Z" fill="#FFD037"/>
<path d="M82.7293 99.8478C81.7439 100.413 80.8858 100.753 80.8121 100.609C80.7383 100.465 81.4824 99.9075 82.4612 99.332C83.4399 98.7565 83.0578 99.1776 83.1315 99.332C83.2053 99.4864 83.7147 99.2864 82.7293 99.8478Z" fill="#FFD037"/>
<path d="M63.7581 94.1914C63.7581 94.1914 61.318 97.5284 64.8843 102.571C68.4506 107.613 71.3868 111.866 70.2002 115.01C70.2002 115.01 64.8206 105.648 60.4431 105.536C56.0657 105.424 58.9415 99.8197 63.7581 94.1914Z" fill="#DB9224"/>
<path opacity="0.1" d="M63.7581 94.1914C63.5454 94.5161 63.3773 94.8704 63.2587 95.2441C58.9885 100.507 56.7126 105.42 60.8185 105.525C64.643 105.638 69.2316 112.796 70.331 114.606C70.2952 114.742 70.2517 114.879 70.2003 115.017C70.2003 115.017 64.8206 105.655 60.4431 105.543C56.0657 105.431 58.9415 99.8197 63.7581 94.1914Z" fill="black"/>
<path d="M59.2231 98.4477C59.2231 99.6197 59.3505 100.574 59.5046 100.574C59.6588 100.574 59.7862 99.6197 59.7862 98.4477C59.7862 97.2758 59.6287 97.8232 59.4745 97.8232C59.3203 97.8232 59.2231 97.2723 59.2231 98.4477Z" fill="#FFD037"/>
<path d="M57.6679 99.8478C58.6533 100.413 59.5147 100.753 59.5884 100.609C59.6622 100.465 58.9181 99.9075 57.9393 99.332C56.9606 98.7565 57.3427 99.1776 57.269 99.332C57.1952 99.4864 56.6824 99.2864 57.6679 99.8478Z" fill="#FFD037"/>
<path d="M83.3125 110.508L83.1919 111.561L83.0209 113.031L82.9505 113.645L82.7796 115.119L82.7059 115.733L82.5316 117.207L80.5808 133.951C80.4065 135.446 78.0737 136.611 75.2581 136.611H65.129C62.3135 136.611 59.984 135.446 59.8097 133.951L57.8556 117.207L57.6846 115.733L57.6142 115.119L57.4399 113.645L57.3695 113.031L57.1986 111.561L57.0746 110.508C56.9774 109.662 58.2377 108.95 59.8331 108.95H80.5674C82.1595 108.95 83.4231 109.662 83.3125 110.508Z" fill="#65617D"/>
<path d="M83.2019 111.55L83.031 113.024H57.3695L57.1986 111.55H83.2019Z" fill="#9D9CB5"/>
<path d="M82.9606 113.638L82.7897 115.112H57.6142L57.4399 113.638H82.9606Z" fill="#9D9CB5"/>
<path d="M82.7159 115.726L82.545 117.196H57.8555L57.6846 115.726H82.7159Z" fill="#9D9CB5"/>
<path d="M114.246 109.154C114.246 109.154 107.737 102.602 107.989 111.119C108.24 119.635 114.246 109.154 114.246 109.154Z" fill="#EE8E9E"/>
<path d="M172.699 94.216C172.554 94.8756 171.854 95.9704 170.761 97.3424C165.117 104.459 149.058 119.249 145.911 121.993C142.157 125.27 133.771 124.098 133.771 124.098L118.252 124.361C118.252 124.361 102.857 123.705 101.603 104.711C100.35 85.7173 119.626 110.476 119.626 110.476C119.626 110.476 124.453 111.445 126.011 111.262C128.264 111.003 133.02 108.252 133.02 108.252C133.02 108.252 136.274 105.76 139.278 103.666C142.281 101.571 153.546 87.6788 155.551 82.8294C156.821 79.7521 160.914 74.7202 163.739 71.4569C165.361 69.5796 166.565 68.2988 166.565 68.2988C166.565 68.2988 173.573 90.1526 172.699 94.216Z" fill="#E8BCC3"/>
<path opacity="0.1" d="M172.699 94.2159C172.554 94.8756 171.854 95.9704 170.761 97.3424C165.063 91.2684 163.873 79.1485 163.739 71.4429C165.361 69.5656 166.565 68.2848 166.565 68.2848C166.565 68.2848 173.573 90.1526 172.699 94.2159Z" fill="black"/>
<path opacity="0.1" d="M232.059 83.9347L226.646 90.5386L219.57 90.9877L208.244 91.7176C208.244 91.7176 192.974 72.4534 195.843 68.2602C196.885 66.7479 197.056 64.7513 196.848 62.867C196.821 62.6073 196.785 62.3476 196.741 62.0915C196.398 60.0977 195.798 58.1619 194.958 56.3368L195.333 56.1579L195.575 56.0421C196.171 57.7802 196.582 59.5818 196.801 61.4143C196.838 61.6634 196.872 61.9231 196.905 62.1897C197.023 63.1372 197.13 64.1898 197.24 65.3478C198.112 75.9518 204.484 79.9415 207.36 81.2118C208.284 81.62 209.188 82.078 210.068 82.5838C212.835 84.1812 216.025 84.7851 219.151 84.3031C226.25 83.3277 232.039 77.9274 232.039 77.9274L232.069 83.2435L232.059 83.9347Z" fill="black"/>
<path d="M232.277 125.14C232.277 125.14 185.717 125.007 179.58 120.554C173.443 116.101 177.079 110.203 176.952 108.761C176.825 107.318 174.2 103.652 173.325 102.599C172.45 101.546 174.076 100.241 173.825 97.36C173.573 94.4791 171.448 97.36 171.448 97.36C162.683 88.0542 164.56 64.4706 164.56 64.4706C164.56 64.4706 172.94 62.2459 176.962 60.537C178.051 60.0739 179.747 59.4142 181.655 58.7019L182.362 58.4352C187.279 56.593 193.124 54.5122 193.124 54.5122C193.124 54.5122 194.247 53.6806 195.377 56.1684C195.893 57.3123 196.413 59.1545 196.828 62.0985C196.865 62.3477 196.899 62.6073 196.932 62.874C197.049 63.8214 197.157 64.8741 197.267 66.0321C198.139 76.6361 204.511 80.6258 207.386 81.896C208.311 82.3043 209.215 82.7623 210.095 83.268C212.861 84.8654 216.052 85.4694 219.178 84.9874C226.277 84.0119 232.066 78.6117 232.066 78.6117L232.096 83.9277L232.183 99.9005L232.277 125.14Z" fill="#DFE5EE"/>
<path d="M230.273 104.438L229.522 109.417C229.522 109.417 210.996 114.263 203.74 115.705C196.483 117.147 180.833 115.312 179.707 118.456C178.581 121.6 184.463 125.926 184.463 125.926L203.234 125.663L238.655 128.548C238.655 128.548 252.173 116.098 247.792 107.448C243.412 98.7987 230.273 104.438 230.273 104.438Z" fill="#E8BCC3"/>
<path opacity="0.1" d="M192.099 65.1267C192.099 65.1267 183.585 72.464 185.214 76.0045C186.843 79.545 192.099 65.1267 192.099 65.1267Z" fill="black"/>
<path opacity="0.1" d="M181.584 78.359C181.584 78.359 172.947 93.9528 173.449 95.1318C173.952 96.3108 176.329 100.504 176.201 97.36C176.074 94.216 181.584 78.359 181.584 78.359Z" fill="black"/>
<path opacity="0.1" d="M185.09 81.1135C185.09 81.1135 183.079 90.8088 181.085 94.8721C179.09 98.9355 185.09 81.1135 185.09 81.1135Z" fill="black"/>
<path opacity="0.1" d="M213.363 51.2173C211.708 54.3945 209.35 57.1107 206.487 59.1386C203.623 61.1666 200.338 62.4474 196.905 62.874H196.865C191.465 63.5379 186.024 62.0469 181.628 58.6984C186.655 56.7965 193.098 54.5087 193.098 54.5087C193.098 54.5087 194.221 53.6771 195.35 56.1649L212.25 48.0943C212.44 49.1965 212.817 50.2542 213.363 51.2173V51.2173Z" fill="black"/>
<path d="M216.004 39.5746C216.01 43.5208 215.028 47.3997 213.155 50.8243C212.26 52.4573 211.176 53.9683 209.927 55.3228C206.443 59.1207 201.8 61.5237 196.801 62.1161H196.758C195.959 62.2119 195.155 62.26 194.351 62.2599C189.031 62.2601 183.897 60.2097 179.929 56.4999C175.96 52.7902 173.436 47.6808 172.836 42.1466C172.743 41.2975 172.697 40.4434 172.699 39.5886C172.699 33.5767 174.98 27.8111 179.04 23.5601C183.101 19.309 188.609 16.9208 194.351 16.9208C200.094 16.9208 205.601 19.309 209.662 23.5601C213.723 27.8111 216.004 33.5767 216.004 39.5886V39.5746Z" fill="#E8BCC3"/>
<path opacity="0.1" d="M230.025 82.468L232.036 79.3099C232.036 79.3099 243.05 65.5513 253.822 74.3307L253.447 86.3875C253.447 86.3875 252.944 90.0543 252.193 92.0018C251.978 92.5797 251.899 93.2038 251.965 93.8205C252.03 94.4371 252.237 95.028 252.569 95.5423C252.569 95.5423 253.196 98.7004 252.321 98.7004C251.446 98.7004 249.941 103.416 249.941 103.416C249.941 103.416 247.813 108.266 249.066 110.494C250.32 112.722 253.072 120.189 253.072 120.189C253.072 120.189 248.691 117.438 247.437 112.852C247.437 112.852 236.799 104.202 228.536 109.694L230.025 82.468Z" fill="black"/>
<path opacity="0.1" d="M253.149 72.4359C253.048 77.2151 252.304 79.2783 252.304 79.2783L233.403 82.2925L232.696 77.1554C235.17 74.4535 244.166 65.8636 253.149 72.4359Z" fill="black"/>
<path d="M230.025 81.7662L232.036 78.6081C232.036 78.6081 243.05 64.8495 253.822 73.6289L253.447 85.6857C253.447 85.6857 252.944 89.3525 252.193 91.3C251.978 91.8779 251.899 92.502 251.965 93.1187C252.03 93.7353 252.237 94.3262 252.569 94.8405C252.569 94.8405 253.196 97.9986 252.321 97.9986C251.446 97.9986 249.941 102.715 249.941 102.715C249.941 102.715 247.813 107.564 249.066 109.792C250.32 112.02 253.072 119.487 253.072 119.487C253.072 119.487 248.691 116.736 247.437 112.15C247.437 112.15 236.799 103.501 228.536 108.992L230.025 81.7662Z" fill="#DFE5EE"/>
<path opacity="0.1" d="M247.796 72.8569C247.796 72.8569 229.649 84.5207 230.524 94.7493C230.524 94.7493 240.663 76.001 247.796 72.8569Z" fill="black"/>
<path opacity="0.1" d="M232.056 83.9382L232.143 99.911C228.711 100.072 225.476 99.6057 222.919 97.2793C221.139 95.6581 220.103 93.4194 219.567 90.9982C219.168 89.0474 219.021 87.0493 219.131 85.0576C219.129 85.0377 219.129 85.0178 219.131 84.9979C219.342 80.5872 220.311 76.1764 219.801 71.7937C219.292 67.4111 216.755 62.7863 212.612 61.8634C211.794 61.6775 210.876 61.6108 210.292 60.9827C209.649 60.2809 209.679 59.1896 209.749 58.2176L209.87 56.579C209.9 56.1579 209.914 55.7403 209.914 55.3228C209.911 51.5973 208.673 47.9883 206.411 45.1122C204.15 42.2361 201.004 40.2713 197.512 39.5535L197.378 39.529C196.211 39.2833 194.998 39.0412 193.832 39.3219C191.613 39.8588 190.178 42.1116 188.134 43.1818C184.212 45.231 177.673 42.9888 173.567 42.2835C173.299 42.2379 173.044 42.1852 172.799 42.1256C172.706 41.2764 172.66 40.4223 172.662 39.5676C172.663 36.0956 173.426 32.6705 174.893 29.5563C176.359 26.4421 178.489 23.7222 181.118 21.6062C183.748 19.4903 186.806 18.0349 190.058 17.3524C193.31 16.6699 196.668 16.7785 199.873 17.6698C203.078 18.5611 206.045 20.2113 208.545 22.4931C211.044 24.7748 213.01 27.6272 214.29 30.8302C215.57 34.0332 216.13 37.5011 215.926 40.9665C215.723 44.4319 214.762 47.8022 213.118 50.8173C213.182 50.9506 213.252 51.0839 213.326 51.2103C217.881 59.1054 232.488 54.1122 232.488 54.1122L233.366 82.2855L232.056 83.9382Z" fill="black"/>
<path d="M190.12 42.575C192.151 41.5013 193.586 39.2485 195.818 38.7152C196.981 38.4345 198.195 38.6766 199.368 38.9187L199.502 38.9468C203.194 39.7116 206.49 41.8674 208.765 45.0059C211.04 48.1444 212.137 52.0475 211.847 55.9757L211.726 57.6144C211.652 58.5829 211.622 59.6812 212.272 60.3759C212.852 61.004 213.771 61.0777 214.588 61.2532C218.731 62.1795 221.269 66.7798 221.778 71.187C222.288 75.5943 221.302 80.019 221.108 84.4473C220.913 88.8756 221.691 93.7636 224.889 96.6725C229.916 101.234 237.558 98.6375 244.212 98.22C241.269 98.22 239.063 95.0409 238.902 91.967C238.742 88.8932 240.049 85.9667 241.299 83.1946C242.549 80.4226 243.803 77.44 243.525 74.3731C243.143 70.1624 239.972 66.7903 238.758 62.7375C237.344 58.0214 238.708 52.958 239.348 48.056C240.552 38.8766 238.678 28.5427 231.89 22.6091C229.048 20.1283 225.572 18.6019 222.448 16.5246C216.851 12.8086 212.437 7.3592 206.779 3.74498C201.121 0.130764 193.177 -1.20965 188.24 3.42217C186.329 5.21524 185.096 7.70309 183.132 9.433C179.294 12.8191 173.194 12.8823 170.117 17.0369C167.469 20.6125 168.186 25.69 169.034 30.1288C170.164 36.0484 169.527 40.6556 175.57 41.7083C179.659 42.3855 186.195 44.6278 190.12 42.575Z" fill="#573B51"/>
<path opacity="0.1" d="M238.716 95.609C233.872 96.2301 229.073 96.5494 225.546 93.3493C222.349 90.4403 221.561 85.5559 221.766 81.1241C221.97 76.6923 222.949 72.264 222.436 67.8602C221.923 63.4565 219.389 58.8563 215.246 57.9299C214.429 57.7474 213.514 57.6808 212.93 57.0527C212.283 56.3509 212.31 55.2561 212.384 54.2876L212.505 52.6489C212.794 48.7211 211.698 44.8185 209.422 41.6806C207.147 38.5427 203.852 36.3875 200.16 35.6235L200.026 35.5954C198.853 35.3533 197.639 35.1112 196.476 35.3919C194.257 35.9288 192.823 38.1991 190.778 39.2518C186.853 41.3045 180.321 39.0623 176.208 38.357C170.175 37.3218 170.805 32.7076 169.672 26.7775C169.038 23.465 168.479 19.7946 169.337 16.6576C169.176 16.8366 169.022 17.0085 168.874 17.2226C166.226 20.7982 166.943 25.8756 167.791 30.3145C168.921 36.2341 168.284 40.8413 174.328 41.894C178.437 42.5958 184.973 44.8415 188.898 42.7888C190.929 41.7151 192.364 39.4623 194.596 38.9289C195.759 38.6482 196.972 38.8903 198.145 39.1325L198.28 39.1605C201.971 39.9253 205.267 42.0812 207.542 45.2196C209.818 48.3581 210.914 52.2612 210.624 56.1895L210.504 57.8281C210.43 58.7966 210.4 59.8949 211.05 60.5897C211.63 61.2178 212.548 61.2915 213.366 61.4669C217.509 62.3933 220.046 66.9935 220.556 71.4008C221.065 75.808 220.083 80.2328 219.885 84.6611C219.688 89.0894 220.468 93.9774 223.666 96.8863C228.694 101.448 236.336 98.8513 242.989 98.4337C241.183 98.4443 239.664 97.2442 238.716 95.609Z" fill="black"/>
<path d="M102.686 107.315L123.35 99.2443C123.838 99.0534 124.379 99.0733 124.854 99.2996C125.328 99.5259 125.698 99.9402 125.88 100.451V100.451C126.063 100.963 126.044 101.529 125.828 102.026C125.611 102.523 125.216 102.909 124.727 103.101L104.064 111.171L99.6325 110.708L102.686 107.315Z" fill="#5C5C8E"/>
<path opacity="0.1" d="M125.257 99.7917C125.439 100.304 125.42 100.87 125.203 101.367C124.986 101.864 124.59 102.25 124.101 102.441L103.423 110.54L100.098 110.189L99.6191 110.722L104.05 111.185L124.714 103.115C125.202 102.923 125.598 102.537 125.814 102.04C126.03 101.543 126.049 100.977 125.867 100.465V100.465C125.715 100.039 125.432 99.6775 125.063 99.4373C125.137 99.5494 125.202 99.6679 125.257 99.7917V99.7917Z" fill="white"/>
<path d="M102.689 107.315L104.064 111.171L100.43 110.789L99.6358 110.705L100.722 109.497L102.689 107.315Z" fill="#EFC8C4"/>
<path d="M100.718 109.487C100.803 109.553 100.876 109.635 100.933 109.729C100.967 109.785 100.985 109.85 100.985 109.917C100.985 109.983 100.967 110.048 100.933 110.104C100.876 110.166 100.809 110.217 100.735 110.255C100.652 110.313 100.583 110.39 100.532 110.48C100.481 110.57 100.449 110.671 100.44 110.775L99.6425 110.694L100.718 109.487Z" fill="#727A9C"/>
<path d="M167.567 131.944C167.567 131.944 185.466 128.011 215.498 132.997L203.733 123.958L182.328 119.372L167.185 123.582L167.567 131.944Z" fill="white"/>
<path opacity="0.1" d="M167.567 131.944C167.567 131.944 185.466 128.011 215.498 132.997L203.733 123.958L182.328 119.372L167.185 123.582L167.567 131.944Z" fill="black"/>
<path d="M165.469 136.197C165.469 136.197 174.482 110.673 220.774 136.278L204.159 125.084C204.159 125.084 164.356 113.571 159.757 126.839L165.469 136.197Z" fill="white"/>
<path opacity="0.1" d="M165.469 136.179C165.469 136.179 174.482 108.89 220.774 136.671L204.159 124.53C204.159 124.53 164.342 110.761 159.734 125.172L165.469 136.179Z" fill="black"/>
<path d="M165.469 136.19C165.469 136.19 174.482 108.497 220.774 136.278L204.159 124.137C204.159 124.137 164.356 110.761 159.757 125.189L165.469 136.19Z" fill="white"/>
<path opacity="0.1" d="M165.469 136.197C165.469 136.197 174.482 105.42 220.774 136.671L204.145 123.01C204.145 123.01 164.342 108.975 159.744 125.172L165.469 136.197Z" fill="black"/>
<path d="M165.469 136.18C165.469 136.18 174.482 105.027 220.774 136.278L204.145 122.617C204.145 122.617 164.342 108.582 159.744 124.779L165.469 136.18Z" fill="white"/>
<defs>
<linearGradient id="paint0_linear" x1="128.5" y1="0" x2="128.5" y2="166" gradientUnits="userSpaceOnUse">
<stop stop-color="white"/>
<stop offset="1" stop-color="white" stop-opacity="0"/>
</linearGradient>
</defs>
</svg>
