<svg width="236" height="48" viewBox="0 0 236 48" fill="none" xmlns="http://www.w3.org/2000/svg">
<circle cx="46" cy="24" r="24" fill="#FF8C00"/>
<circle cx="36" cy="24" r="24" fill="#818C8F"/>
<circle cx="24" cy="24" r="24" fill="#00C1FF"/>
<path d="M84.3945 33H82.1445V15.9375H84.3945V33ZM91.4258 15.9375L97.0039 29.8594L102.582 15.9375H105.5V33H103.25V26.3555L103.461 19.1836L97.8594 33H96.1367L90.5469 19.2188L90.7695 26.3555V33H88.5195V15.9375H91.4258ZM111.723 26.3203V33H109.473V15.9375H115.766C117.633 15.9375 119.094 16.4141 120.148 17.3672C121.211 18.3203 121.742 19.582 121.742 21.1523C121.742 22.8086 121.223 24.0859 120.184 24.9844C119.152 25.875 117.672 26.3203 115.742 26.3203H111.723ZM111.723 24.4805H115.766C116.969 24.4805 117.891 24.1992 118.531 23.6367C119.172 23.0664 119.492 22.2461 119.492 21.1758C119.492 20.1602 119.172 19.3477 118.531 18.7383C117.891 18.1289 117.012 17.8125 115.895 17.7891H111.723V24.4805ZM132.418 28.5469H125.27L123.664 33H121.344L127.859 15.9375H129.828L136.355 33H134.047L132.418 28.5469ZM125.949 26.6953H131.75L128.844 18.7148L125.949 26.6953ZM151.062 27.5859C150.852 29.3906 150.184 30.7852 149.059 31.7695C147.941 32.7461 146.453 33.2344 144.594 33.2344C142.578 33.2344 140.961 32.5117 139.742 31.0664C138.531 29.6211 137.926 27.6875 137.926 25.2656V23.625C137.926 22.0391 138.207 20.6445 138.77 19.4414C139.34 18.2383 140.145 17.3164 141.184 16.6758C142.223 16.0273 143.426 15.7031 144.793 15.7031C146.605 15.7031 148.059 16.2109 149.152 17.2266C150.246 18.2344 150.883 19.6328 151.062 21.4219H148.801C148.605 20.0625 148.18 19.0781 147.523 18.4688C146.875 17.8594 145.965 17.5547 144.793 17.5547C143.355 17.5547 142.227 18.0859 141.406 19.1484C140.594 20.2109 140.188 21.7227 140.188 23.6836V25.3359C140.188 27.1875 140.574 28.6602 141.348 29.7539C142.121 30.8477 143.203 31.3945 144.594 31.3945C145.844 31.3945 146.801 31.1133 147.465 30.5508C148.137 29.9805 148.582 28.9922 148.801 27.5859H151.062ZM165.582 17.7891H160.098V33H157.859V17.7891H152.387V15.9375H165.582V17.7891ZM184.918 17.7891H179.434V33H177.195V17.7891H171.723V15.9375H184.918V17.7891ZM197.094 25.1133H189.699V31.1602H198.289V33H187.449V15.9375H198.172V17.7891H189.699V23.2734H197.094V25.1133ZM210.512 28.5469H203.363L201.758 33H199.438L205.953 15.9375H207.922L214.449 33H212.141L210.512 28.5469ZM204.043 26.6953H209.844L206.938 18.7148L204.043 26.6953ZM219.652 15.9375L225.23 29.8594L230.809 15.9375H233.727V33H231.477V26.3555L231.688 19.1836L226.086 33H224.363L218.773 19.2188L218.996 26.3555V33H216.746V15.9375H219.652Z" fill="#1D1B1B"/>
</svg>
